<svg width="38" height="34" viewBox="0 0 38 34" fill="none" xmlns="http://www.w3.org/2000/svg">
<path fill-rule="evenodd" clip-rule="evenodd" d="M0.25 17C0.25 15.8494 1.18274 14.9166 2.33333 14.9166H35.6667C36.8173 14.9166 37.75 15.8494 37.75 17C37.75 18.1506 36.8173 19.0833 35.6667 19.0833H2.33333C1.18274 19.0833 0.25 18.1506 0.25 17Z" fill="black"/>
<path fill-rule="evenodd" clip-rule="evenodd" d="M19.6102 0.943507C20.4238 0.129915 21.7429 0.129915 22.5565 0.943507L37.1398 15.5268C37.9534 16.3404 37.9534 17.6595 37.1398 18.4731L22.5565 33.0564C21.7429 33.87 20.4238 33.87 19.6102 33.0564C18.7966 32.2429 18.7966 30.9238 19.6102 30.1102L32.7204 17L19.6102 3.88979C18.7966 3.07619 18.7966 1.7571 19.6102 0.943507Z" fill="black"/>
</svg>
