<svg width="188" height="31" viewBox="0 0 188 31" fill="none" xmlns="http://www.w3.org/2000/svg">
<path d="M13.2251 3.5C19.4896 3.5 24.1722 6.99999 25.6909 12.7272H18.667C17.5913 10.4363 15.5664 9.35452 13.1618 9.35452C9.23859 9.35452 6.51764 12.2818 6.51764 16.9909C6.51764 21.6999 9.23859 24.6272 13.1618 24.6272C15.5664 24.6272 17.5913 23.4817 18.667 21.2545H25.6909C24.1722 26.9817 19.4896 30.4817 13.2251 30.4817C5.44191 30.4181 0 24.8817 0 16.9272C0 8.97271 5.44191 3.5 13.2251 3.5Z" fill="#404041"/>
<path d="M38.4731 30.5455C32.3351 30.5455 27.7158 26.4091 27.7158 19.7273C27.7158 13.0455 32.4617 8.90918 38.5996 8.90918C44.7376 8.90918 49.4835 13.0455 49.4835 19.7273C49.4835 26.4091 44.6111 30.5455 38.4731 30.5455ZM38.4731 24.9455C40.7511 24.9455 42.9025 23.2273 42.9025 19.7273C42.9025 16.1637 40.8144 14.5092 38.5364 14.5092C36.1951 14.5092 34.1702 16.1637 34.1702 19.7273C34.2335 23.2273 36.1318 24.9455 38.4731 24.9455Z" fill="#404041"/>
<path d="M62.2026 30.5454C56.0646 30.5454 51.4453 26.4091 51.4453 19.7273C51.4453 13.0455 56.1912 8.90912 62.3291 8.90912C68.4671 8.90912 73.2129 13.0455 73.2129 19.7273C73.2129 26.4091 68.3405 30.5454 62.2026 30.5454ZM62.2026 24.9454C64.4806 24.9454 66.632 23.2272 66.632 19.7273C66.632 16.1636 64.5439 14.5091 62.2659 14.5091C59.9246 14.5091 57.8997 16.1636 57.8997 19.7273C57.8997 23.2272 59.8613 24.9454 62.2026 24.9454Z" fill="#404041"/>
<path d="M75.4902 3.5H81.8813V17.7545L88.2091 9.22725H96.1189L87.4498 19.7272L96.2454 30.2272H88.3357L81.9446 21.3818V30.2272H75.5535V3.5H75.4902Z" fill="#404041"/>
<path d="M97.6387 3.56346C97.6387 1.59074 99.1573 0.0634766 101.435 0.0634766C103.713 0.0634766 105.232 1.59074 105.232 3.56346C105.232 5.47255 103.713 6.99981 101.435 6.99981C99.1573 6.99981 97.6387 5.47255 97.6387 3.56346ZM98.2715 9.16344H104.663V30.1634H98.2715V9.16344Z" fill="#404041"/>
<path d="M117.57 30.5454C111.432 30.5454 107.003 26.4091 107.003 19.7273C107.003 13.0455 111.369 8.90912 117.57 8.90912C123.645 8.90912 128.011 12.9818 128.011 19.4091C128.011 19.9818 127.948 20.6818 127.885 21.3182H113.394C113.647 24.0545 115.292 25.3272 117.381 25.3272C119.152 25.3272 120.165 24.4363 120.734 23.2909H127.568C126.493 27.3636 122.822 30.5454 117.57 30.5454ZM113.457 17.6909H121.494C121.494 15.4 119.722 14.0636 117.57 14.0636C115.419 14.0636 113.837 15.3364 113.457 17.6909Z" fill="#404041"/>
<path d="M157.563 30.5454C151.425 30.5454 146.995 26.4091 146.995 19.7273C146.995 13.0455 151.361 8.90912 157.563 8.90912C163.637 8.90912 168.003 12.9818 168.003 19.4091C168.003 19.9818 167.94 20.6818 167.877 21.3182H153.386C153.639 24.0545 155.285 25.3272 157.373 25.3272C159.144 25.3272 160.157 24.4363 160.726 23.2909H167.56C166.485 27.3636 162.751 30.5454 157.563 30.5454ZM153.386 17.6909H161.422C161.422 15.4 159.651 14.0636 157.499 14.0636C155.411 14.0636 153.766 15.3364 153.386 17.6909Z" fill="#404041"/>
<path d="M179.583 30.5455C174.015 30.5455 170.281 27.4273 169.965 23.3546H176.293C176.419 24.8182 177.748 25.7728 179.52 25.7728C181.165 25.7728 182.051 25.0091 182.051 24.0546C182.051 20.6819 170.661 23.1 170.661 15.4001C170.661 11.8364 173.698 8.90918 179.14 8.90918C184.519 8.90918 187.556 11.9001 187.936 16.0364H181.988C181.798 14.6364 180.722 13.6819 178.887 13.6819C177.368 13.6819 176.546 14.2546 176.546 15.2728C176.546 18.6455 187.872 16.2273 187.999 24.1182C188.062 27.7455 184.835 30.5455 179.583 30.5455Z" fill="#404041"/>
<path d="M134.656 9.5459H128.012L134.086 20.8731H140.731L134.656 9.5459Z" fill="#0056A7"/>
<path d="M133.96 20.5543L134.15 20.8725H140.794L136.428 12.918L133.96 20.5543Z" fill="#2E3191"/>
<path d="M146.109 0L134.149 20.8727H140.794L152.753 0H146.109Z" fill="#0056A7"/>
<path d="M134.149 23.9902H140.604V30.5448H134.149V23.9902Z" fill="#0056A7"/>
</svg>
