<svg width="109" height="109" viewBox="0 0 109 109" fill="none" xmlns="http://www.w3.org/2000/svg">
<path d="M40.2631 56.0901C39.6691 56.0901 39.1291 55.9821 38.6431 55.7661C38.1571 55.5501 37.7251 55.2801 37.4011 54.9021C37.0771 54.5241 36.8071 54.0921 36.6181 53.6061C36.4291 53.1201 36.3481 52.6071 36.3481 52.0401C36.3481 51.5001 36.4291 50.9601 36.6181 50.4471C36.7801 49.9611 37.0501 49.5021 37.3741 49.1241C37.6981 48.7461 38.1301 48.4491 38.6161 48.2331C39.1021 48.0171 39.6421 47.8821 40.2631 47.8821C40.8571 47.8821 41.3971 48.0171 41.8831 48.2331C42.3691 48.4491 42.7741 48.7461 43.1251 49.1241C43.4491 49.5021 43.7191 49.9611 43.9081 50.4471C44.0701 50.9601 44.1781 51.5001 44.1781 52.0401C44.1781 52.6071 44.0701 53.1201 43.8811 53.6061C43.6921 54.0921 43.4221 54.5241 43.0981 54.9021C42.7741 55.2801 42.3691 55.5501 41.8831 55.7661C41.3971 55.9821 40.8571 56.0901 40.2631 56.0901ZM41.6401 57.8721L37.5631 64.3791L39.3991 65.5671L41.5321 62.0301L43.4491 58.7901L44.9341 56.3061L45.6901 54.9831C45.9061 54.5781 46.0681 54.1191 46.2301 53.6061C46.3651 53.0931 46.4461 52.5531 46.4461 51.9591C46.4461 51.2031 46.3111 50.4741 46.0411 49.7181C45.7711 48.9891 45.3661 48.3411 44.8261 47.7471C44.2861 47.1531 43.6381 46.6941 42.8821 46.3161C42.1261 45.9651 41.2351 45.7761 40.2631 45.7761C39.2641 45.7761 38.3731 45.9651 37.6171 46.3161C36.8611 46.6941 36.2131 47.1531 35.6731 47.7471C35.1331 48.3411 34.7551 49.0161 34.4851 49.7721C34.2151 50.5281 34.0801 51.2841 34.0801 52.0401C34.0801 52.8231 34.2151 53.5791 34.4851 54.3081C34.7551 55.0641 35.1601 55.7121 35.7001 56.2791C36.2131 56.8731 36.8341 57.3321 37.5901 57.6831C38.3461 58.0341 39.1831 58.1961 40.1551 58.1961C40.6141 58.1961 40.9381 58.1691 41.1541 58.0881C41.3701 58.0341 41.5321 57.9531 41.6401 57.8721Z" fill="#0DAA41"/>
<path d="M61.8629 58.8981C61.8629 57.8721 61.6739 56.9541 61.3499 56.1441C61.0259 55.3611 60.5669 54.7131 60.0269 54.1731C59.4599 53.6601 58.8119 53.2821 58.0829 53.0121C57.3539 52.7421 56.5979 52.6071 55.8419 52.6071C55.2749 52.6071 54.6809 52.6881 54.0599 52.8231C53.4389 52.9581 52.8989 53.1471 52.4129 53.3901V48.2061H61.4579V46.1001H50.2529V56.8461C50.5229 56.6301 50.8739 56.3871 51.2789 56.1171C51.6569 55.8741 52.0889 55.6581 52.5209 55.4421C52.9529 55.2531 53.4389 55.0911 53.9249 54.9561C54.4109 54.8211 54.9239 54.7401 55.4369 54.7401C55.9769 54.7401 56.5169 54.8481 57.0299 55.0101C57.5159 55.1991 57.9749 55.4691 58.3529 55.8201C58.7309 56.1711 59.0279 56.6031 59.2439 57.1161C59.4599 57.6561 59.5949 58.2501 59.5949 58.9521C59.5949 59.6541 59.4599 60.2751 59.2439 60.8151C59.0279 61.3551 58.7309 61.7871 58.3529 62.1381C57.9749 62.5161 57.5159 62.7861 57.0299 62.9481C56.5169 63.1371 56.0039 63.2181 55.4639 63.2181C54.9239 63.2181 54.4109 63.1371 53.9789 62.9751C53.5469 62.8131 53.1419 62.5971 52.7909 62.3271C52.4399 62.0571 52.1429 61.7331 51.8999 61.3551C51.6299 60.9771 51.4409 60.5991 51.2789 60.1941L49.3079 61.2471C49.5239 61.7871 49.7939 62.2731 50.1719 62.7591C50.5229 63.2451 50.9549 63.6771 51.4679 64.0551C51.9809 64.4331 52.5749 64.7571 53.2229 64.9731C53.8709 65.2161 54.6269 65.3241 55.4369 65.3241C56.2469 65.3241 57.0299 65.2161 57.8129 64.9461C58.5689 64.6761 59.2709 64.2981 59.8649 63.7581C60.4589 63.2181 60.9449 62.5701 61.3229 61.7601C61.6739 60.9501 61.8629 60.0051 61.8629 58.8981Z" fill="#0DAA41"/>
<path d="M77.2851 63.8661C76.9071 63.8661 76.5561 63.8121 76.2321 63.6501C75.9081 63.5151 75.6111 63.3261 75.3681 63.0561C75.1251 62.8131 74.9361 62.5161 74.8011 62.1921C74.6661 61.8681 74.6121 61.5171 74.6121 61.1391C74.6121 60.7611 74.6661 60.4101 74.8011 60.0861C74.9361 59.7621 75.1251 59.4921 75.3681 59.2221C75.6111 58.9791 75.9081 58.7901 76.2321 58.6281C76.5561 58.4931 76.9071 58.4121 77.2851 58.4121C77.6631 58.4121 78.0141 58.4931 78.3381 58.6281C78.6621 58.7901 78.9321 58.9791 79.1751 59.2221C79.4181 59.4921 79.6071 59.7621 79.7421 60.0861C79.8771 60.4101 79.9581 60.7611 79.9581 61.1391C79.9581 61.5171 79.8771 61.8681 79.7421 62.1921C79.6071 62.5161 79.4181 62.8131 79.1751 63.0561C78.9321 63.3261 78.6621 63.5151 78.3381 63.6501C78.0141 63.8121 77.6631 63.8661 77.2851 63.8661ZM77.2851 56.9541C76.6911 56.9541 76.1241 57.0621 75.6111 57.2781C75.0981 57.4941 74.6661 57.7911 74.2881 58.1691C73.9101 58.5471 73.5861 59.0061 73.3701 59.4921C73.1541 60.0051 73.0461 60.5451 73.0461 61.1391C73.0461 61.7331 73.1541 62.3001 73.3701 62.7861C73.5861 63.2991 73.9101 63.7311 74.2881 64.1091C74.6661 64.4871 75.0981 64.7841 75.6111 65.0001C76.1241 65.2161 76.6911 65.3241 77.2851 65.3241C77.8791 65.3241 78.4191 65.2161 78.9321 65.0001C79.4451 64.7841 79.9041 64.4871 80.2821 64.1091C80.6601 63.7311 80.9571 63.2991 81.1731 62.7861C81.3891 62.3001 81.5241 61.7331 81.5241 61.1391C81.5241 60.5451 81.3891 60.0051 81.1731 59.4921C80.9571 59.0061 80.6601 58.5471 80.2821 58.1691C79.9041 57.7911 79.4451 57.4941 78.9321 57.2781C78.4191 57.0621 77.8791 56.9541 77.2851 56.9541ZM78.2031 45.5601L65.7561 64.7031L66.9711 65.5401L79.3641 46.3431L78.2031 45.5601ZM68.2671 52.6881C67.8891 52.6881 67.5381 52.6341 67.2141 52.4721C66.8901 52.3371 66.5931 52.1481 66.3501 51.8781C66.1071 51.6351 65.9181 51.3381 65.7831 51.0141C65.6481 50.6901 65.5941 50.3391 65.5941 49.9611C65.5941 49.5831 65.6481 49.2321 65.7831 48.9081C65.9181 48.5841 66.1071 48.3141 66.3501 48.0441C66.5931 47.8011 66.8901 47.6121 67.2141 47.4501C67.5381 47.3151 67.8891 47.2341 68.2671 47.2341C68.6451 47.2341 68.9961 47.3151 69.3201 47.4501C69.6441 47.6121 69.9141 47.8011 70.1571 48.0441C70.4001 48.3141 70.5891 48.5841 70.7241 48.9081C70.8591 49.2321 70.9401 49.5831 70.9401 49.9611C70.9401 50.3391 70.8591 50.6901 70.7241 51.0141C70.5891 51.3381 70.4001 51.6351 70.1571 51.8781C69.9141 52.1481 69.6441 52.3371 69.3201 52.4721C68.9961 52.6341 68.6451 52.6881 68.2671 52.6881ZM68.2671 45.7761C67.6731 45.7761 67.1061 45.8841 66.5931 46.1001C66.0801 46.3161 65.6481 46.6131 65.2701 46.9911C64.8921 47.3691 64.5681 47.8281 64.3521 48.3141C64.1361 48.8271 64.0281 49.3671 64.0281 49.9611C64.0281 50.5551 64.1361 51.1221 64.3521 51.6081C64.5681 52.1211 64.8921 52.5531 65.2701 52.9311C65.6481 53.3091 66.0801 53.6061 66.5931 53.8221C67.1061 54.0381 67.6731 54.1461 68.2671 54.1461C68.8611 54.1461 69.4011 54.0381 69.9141 53.8221C70.4271 53.6061 70.8861 53.3091 71.2641 52.9311C71.6421 52.5531 71.9391 52.1211 72.1551 51.6081C72.3711 51.1221 72.5061 50.5551 72.5061 49.9611C72.5061 49.3671 72.3711 48.8271 72.1551 48.3141C71.9391 47.8281 71.6421 47.3691 71.2641 46.9911C70.8861 46.6131 70.4271 46.3161 69.9141 46.1001C69.4011 45.8841 68.8611 45.7761 68.2671 45.7761Z" fill="#0DAA41"/>
<path fill-rule="evenodd" clip-rule="evenodd" d="M66.6315 17.9613C61.8332 16.3682 56.7681 15.7357 51.7253 16.1001C46.6826 16.4645 41.761 17.8185 37.2415 20.085C32.7221 22.3514 28.6933 25.4858 25.3852 29.3092C22.0771 33.1326 19.5545 37.5701 17.9613 42.3685C16.3682 47.1668 15.7357 52.2319 16.1001 57.2747C16.4645 62.3174 17.8185 67.239 20.085 71.7585C22.3514 76.2779 25.4858 80.3067 29.3092 83.6148C33.1326 86.9229 37.5701 89.4456 42.3685 91.0387C47.1668 92.6318 52.2319 93.2643 57.2747 92.8999C62.3174 92.5355 67.239 91.1815 71.7585 88.915C76.2779 86.6486 80.3067 83.5142 83.6148 79.6908C86.9229 75.8674 89.4456 71.4299 91.0387 66.6315C92.6318 61.8332 93.2643 56.7681 92.8999 51.7253C92.5355 46.6826 91.1815 41.761 88.915 37.2415C86.6486 32.7221 83.5142 28.6933 79.6908 25.3852C75.8674 22.0771 71.4299 19.5545 66.6315 17.9613ZM50.5722 0.141724C57.7107 -0.37408 64.8808 0.521186 71.6732 2.7764C78.4657 5.03162 84.7474 8.60263 90.1597 13.2855C95.5721 17.9684 100.009 23.6715 103.217 30.0692C106.426 36.4668 108.342 43.4338 108.858 50.5722C109.374 57.7106 108.479 64.8808 106.224 71.6732C103.968 78.4656 100.397 84.7474 95.7145 90.1597C91.0316 95.5721 85.3285 100.009 78.9308 103.217C72.5332 106.426 65.5662 108.342 58.4278 108.858C51.2894 109.374 44.1192 108.479 37.3268 106.224C30.5344 103.968 24.2526 100.397 18.8403 95.7145C13.4279 91.0316 8.9909 85.3285 5.7826 78.9308C2.5743 72.5331 0.657529 65.5662 0.141724 58.4278C-0.37408 51.2894 0.521185 44.1192 2.7764 37.3268C5.03162 30.5344 8.60263 24.2526 13.2855 18.8403C17.9684 13.4279 23.6715 8.9909 30.0692 5.7826C36.4669 2.5743 43.4338 0.657528 50.5722 0.141724Z" fill="#D3E0D7"/>
<path d="M54.5001 0C68.2142 1.63539e-07 81.4242 5.17029 91.4948 14.4794C101.565 23.7886 107.756 36.5522 108.832 50.224C109.908 63.8958 105.79 77.4708 97.2999 88.2407C88.8095 99.0106 76.571 106.184 63.0257 108.329C49.4805 110.474 35.6243 107.434 24.2215 99.815C12.8186 92.1959 4.7074 80.5579 1.50593 67.2227C-1.69553 53.8875 0.248117 39.8355 6.94914 27.87C13.6502 15.9046 24.6159 6.90524 37.6588 2.66738L42.6398 17.9973C33.4544 20.9818 25.7319 27.3195 21.0127 35.7461C16.2936 44.1727 14.9248 54.0686 17.1794 63.4598C19.434 72.851 25.1463 81.047 33.1766 86.4127C41.207 91.7785 50.9651 93.9195 60.5042 92.4086C70.0433 90.8978 78.6622 85.8462 84.6415 78.2616C90.6207 70.677 93.5207 61.1169 92.763 51.4887C92.0052 41.8604 87.6454 32.8717 80.5533 26.3159C73.4612 19.76 64.1582 16.1188 54.5001 16.1188V0Z" fill="white"/>
<path fill-rule="evenodd" clip-rule="evenodd" d="M37.6588 2.66738C37.6563 2.6682 37.6537 2.66903 37.6512 2.66986C32.4525 4.35984 27.5839 6.80631 23.184 9.89557C16.5478 14.5549 10.9778 20.6764 6.94914 27.87C0.248117 39.8355 -1.69553 53.8875 1.50593 67.2227C4.7074 80.5579 12.8186 92.1959 24.2215 99.815C35.6243 107.434 49.4805 110.474 63.0257 108.329C76.571 106.184 88.8095 99.0106 97.2999 88.2407C105.79 77.4708 109.908 63.8958 108.832 50.224C107.756 36.5522 101.565 23.7886 91.4948 14.4794C85.4404 8.88281 78.2513 4.78212 70.5001 2.40149C65.3584 0.822304 59.9693 0 54.5001 0V16.1188C55.9896 16.1188 57.4706 16.2054 58.9364 16.376C66.975 17.3112 74.5549 20.771 80.5533 26.3159C87.6454 32.8717 92.0052 41.8604 92.763 51.4887C93.5207 61.1169 90.6207 70.677 84.6415 78.2616C78.6622 85.8462 70.0433 90.8978 60.5042 92.4086C50.9651 93.9195 41.207 91.7785 33.1766 86.4127C25.1463 81.047 19.434 72.851 17.1794 63.4598C14.9248 54.0686 16.2936 44.1727 21.0127 35.7461C25.0041 28.619 31.1439 22.9863 38.5001 19.6127C39.8414 18.9976 41.2232 18.4576 42.6398 17.9973L37.6588 2.66738Z" fill="#0DAA41"/>
<path fill-rule="evenodd" clip-rule="evenodd" d="M37.6588 2.66738C37.6563 2.6682 37.6537 2.66903 37.6512 2.66986C32.4525 4.35984 27.5839 6.80631 23.184 9.89557C16.5478 14.5549 10.9778 20.6764 6.94914 27.87C0.248117 39.8355 -1.69553 53.8875 1.50593 67.2227C4.7074 80.5579 12.8186 92.1959 24.2215 99.815C35.6243 107.434 49.4805 110.474 63.0257 108.329C76.571 106.184 88.8095 99.0106 97.2999 88.2407C105.79 77.4708 109.908 63.8958 108.832 50.224C107.756 36.5522 101.565 23.7886 91.4948 14.4794C85.4404 8.88281 78.2513 4.78212 70.5001 2.40149C65.3584 0.822304 59.9693 0 54.5001 0V16.1188C55.9896 16.1188 57.4706 16.2054 58.9364 16.376C66.975 17.3112 74.5549 20.771 80.5533 26.3159C87.6454 32.8717 92.0052 41.8604 92.763 51.4887C93.5207 61.1169 90.6207 70.677 84.6415 78.2616C78.6622 85.8462 70.0433 90.8978 60.5042 92.4086C50.9651 93.9195 41.207 91.7785 33.1766 86.4127C25.1463 81.047 19.434 72.851 17.1794 63.4598C14.9248 54.0686 16.2936 44.1727 21.0127 35.7461C25.0041 28.619 31.1439 22.9863 38.5001 19.6127C39.8414 18.9976 41.2232 18.4576 42.6398 17.9973L37.6588 2.66738Z" fill="#0DAA41"/>
</svg>
