<svg width="0" height="0" class="hidden">
  <symbol fill="none" xmlns="http://www.w3.org/2000/svg" viewBox="0 0 109 109" id="percent">
    <path d="M40.2631 56.0901C39.6691 56.0901 39.1291 55.9821 38.6431 55.7661C38.1571 55.5501 37.7251 55.2801 37.4011 54.9021C37.0771 54.5241 36.8071 54.0921 36.6181 53.6061C36.4291 53.1201 36.3481 52.6071 36.3481 52.0401C36.3481 51.5001 36.4291 50.9601 36.6181 50.4471C36.7801 49.9611 37.0501 49.5021 37.3741 49.1241C37.6981 48.7461 38.1301 48.4491 38.6161 48.2331C39.1021 48.0171 39.6421 47.8821 40.2631 47.8821C40.8571 47.8821 41.3971 48.0171 41.8831 48.2331C42.3691 48.4491 42.7741 48.7461 43.1251 49.1241C43.4491 49.5021 43.7191 49.9611 43.9081 50.4471C44.0701 50.9601 44.1781 51.5001 44.1781 52.0401C44.1781 52.6071 44.0701 53.1201 43.8811 53.6061C43.6921 54.0921 43.4221 54.5241 43.0981 54.9021C42.7741 55.2801 42.3691 55.5501 41.8831 55.7661C41.3971 55.9821 40.8571 56.0901 40.2631 56.0901ZM41.6401 57.8721L37.5631 64.3791L39.3991 65.5671L41.5321 62.0301L43.4491 58.7901L44.9341 56.3061L45.6901 54.9831C45.9061 54.5781 46.0681 54.1191 46.2301 53.6061C46.3651 53.0931 46.4461 52.5531 46.4461 51.9591C46.4461 51.2031 46.3111 50.4741 46.0411 49.7181C45.7711 48.9891 45.3661 48.3411 44.8261 47.7471C44.2861 47.1531 43.6381 46.6941 42.8821 46.3161C42.1261 45.9651 41.2351 45.7761 40.2631 45.7761C39.2641 45.7761 38.3731 45.9651 37.6171 46.3161C36.8611 46.6941 36.2131 47.1531 35.6731 47.7471C35.1331 48.3411 34.7551 49.0161 34.4851 49.7721C34.2151 50.5281 34.0801 51.2841 34.0801 52.0401C34.0801 52.8231 34.2151 53.5791 34.4851 54.3081C34.7551 55.0641 35.1601 55.7121 35.7001 56.2791C36.2131 56.8731 36.8341 57.3321 37.5901 57.6831C38.3461 58.0341 39.1831 58.1961 40.1551 58.1961C40.6141 58.1961 40.9381 58.1691 41.1541 58.0881C41.3701 58.0341 41.5321 57.9531 41.6401 57.8721Z" fill="#0DAA41"></path>
    <path d="M61.8629 58.8981C61.8629 57.8721 61.6739 56.9541 61.3499 56.1441C61.0259 55.3611 60.5669 54.7131 60.0269 54.1731C59.4599 53.6601 58.8119 53.2821 58.0829 53.0121C57.3539 52.7421 56.5979 52.6071 55.8419 52.6071C55.2749 52.6071 54.6809 52.6881 54.0599 52.8231C53.4389 52.9581 52.8989 53.1471 52.4129 53.3901V48.2061H61.4579V46.1001H50.2529V56.8461C50.5229 56.6301 50.8739 56.3871 51.2789 56.1171C51.6569 55.8741 52.0889 55.6581 52.5209 55.4421C52.9529 55.2531 53.4389 55.0911 53.9249 54.9561C54.4109 54.8211 54.9239 54.7401 55.4369 54.7401C55.9769 54.7401 56.5169 54.8481 57.0299 55.0101C57.5159 55.1991 57.9749 55.4691 58.3529 55.8201C58.7309 56.1711 59.0279 56.6031 59.2439 57.1161C59.4599 57.6561 59.5949 58.2501 59.5949 58.9521C59.5949 59.6541 59.4599 60.2751 59.2439 60.8151C59.0279 61.3551 58.7309 61.7871 58.3529 62.1381C57.9749 62.5161 57.5159 62.7861 57.0299 62.9481C56.5169 63.1371 56.0039 63.2181 55.4639 63.2181C54.9239 63.2181 54.4109 63.1371 53.9789 62.9751C53.5469 62.8131 53.1419 62.5971 52.7909 62.3271C52.4399 62.0571 52.1429 61.7331 51.8999 61.3551C51.6299 60.9771 51.4409 60.5991 51.2789 60.1941L49.3079 61.2471C49.5239 61.7871 49.7939 62.2731 50.1719 62.7591C50.5229 63.2451 50.9549 63.6771 51.4679 64.0551C51.9809 64.4331 52.5749 64.7571 53.2229 64.9731C53.8709 65.2161 54.6269 65.3241 55.4369 65.3241C56.2469 65.3241 57.0299 65.2161 57.8129 64.9461C58.5689 64.6761 59.2709 64.2981 59.8649 63.7581C60.4589 63.2181 60.9449 62.5701 61.3229 61.7601C61.6739 60.9501 61.8629 60.0051 61.8629 58.8981Z" fill="#0DAA41"></path>
    <path d="M77.2851 63.8661C76.9071 63.8661 76.5561 63.8121 76.2321 63.6501C75.9081 63.5151 75.6111 63.3261 75.3681 63.0561C75.1251 62.8131 74.9361 62.5161 74.8011 62.1921C74.6661 61.8681 74.6121 61.5171 74.6121 61.1391C74.6121 60.7611 74.6661 60.4101 74.8011 60.0861C74.9361 59.7621 75.1251 59.4921 75.3681 59.2221C75.6111 58.9791 75.9081 58.7901 76.2321 58.6281C76.5561 58.4931 76.9071 58.4121 77.2851 58.4121C77.6631 58.4121 78.0141 58.4931 78.3381 58.6281C78.6621 58.7901 78.9321 58.9791 79.1751 59.2221C79.4181 59.4921 79.6071 59.7621 79.7421 60.0861C79.8771 60.4101 79.9581 60.7611 79.9581 61.1391C79.9581 61.5171 79.8771 61.8681 79.7421 62.1921C79.6071 62.5161 79.4181 62.8131 79.1751 63.0561C78.9321 63.3261 78.6621 63.5151 78.3381 63.6501C78.0141 63.8121 77.6631 63.8661 77.2851 63.8661ZM77.2851 56.9541C76.6911 56.9541 76.1241 57.0621 75.6111 57.2781C75.0981 57.4941 74.6661 57.7911 74.2881 58.1691C73.9101 58.5471 73.5861 59.0061 73.3701 59.4921C73.1541 60.0051 73.0461 60.5451 73.0461 61.1391C73.0461 61.7331 73.1541 62.3001 73.3701 62.7861C73.5861 63.2991 73.9101 63.7311 74.2881 64.1091C74.6661 64.4871 75.0981 64.7841 75.6111 65.0001C76.1241 65.2161 76.6911 65.3241 77.2851 65.3241C77.8791 65.3241 78.4191 65.2161 78.9321 65.0001C79.4451 64.7841 79.9041 64.4871 80.2821 64.1091C80.6601 63.7311 80.9571 63.2991 81.1731 62.7861C81.3891 62.3001 81.5241 61.7331 81.5241 61.1391C81.5241 60.5451 81.3891 60.0051 81.1731 59.4921C80.9571 59.0061 80.6601 58.5471 80.2821 58.1691C79.9041 57.7911 79.4451 57.4941 78.9321 57.2781C78.4191 57.0621 77.8791 56.9541 77.2851 56.9541ZM78.2031 45.5601L65.7561 64.7031L66.9711 65.5401L79.3641 46.3431L78.2031 45.5601ZM68.2671 52.6881C67.8891 52.6881 67.5381 52.6341 67.2141 52.4721C66.8901 52.3371 66.5931 52.1481 66.3501 51.8781C66.1071 51.6351 65.9181 51.3381 65.7831 51.0141C65.6481 50.6901 65.5941 50.3391 65.5941 49.9611C65.5941 49.5831 65.6481 49.2321 65.7831 48.9081C65.9181 48.5841 66.1071 48.3141 66.3501 48.0441C66.5931 47.8011 66.8901 47.6121 67.2141 47.4501C67.5381 47.3151 67.8891 47.2341 68.2671 47.2341C68.6451 47.2341 68.9961 47.3151 69.3201 47.4501C69.6441 47.6121 69.9141 47.8011 70.1571 48.0441C70.4001 48.3141 70.5891 48.5841 70.7241 48.9081C70.8591 49.2321 70.9401 49.5831 70.9401 49.9611C70.9401 50.3391 70.8591 50.6901 70.7241 51.0141C70.5891 51.3381 70.4001 51.6351 70.1571 51.8781C69.9141 52.1481 69.6441 52.3371 69.3201 52.4721C68.9961 52.6341 68.6451 52.6881 68.2671 52.6881ZM68.2671 45.7761C67.6731 45.7761 67.1061 45.8841 66.5931 46.1001C66.0801 46.3161 65.6481 46.6131 65.2701 46.9911C64.8921 47.3691 64.5681 47.8281 64.3521 48.3141C64.1361 48.8271 64.0281 49.3671 64.0281 49.9611C64.0281 50.5551 64.1361 51.1221 64.3521 51.6081C64.5681 52.1211 64.8921 52.5531 65.2701 52.9311C65.6481 53.3091 66.0801 53.6061 66.5931 53.8221C67.1061 54.0381 67.6731 54.1461 68.2671 54.1461C68.8611 54.1461 69.4011 54.0381 69.9141 53.8221C70.4271 53.6061 70.8861 53.3091 71.2641 52.9311C71.6421 52.5531 71.9391 52.1211 72.1551 51.6081C72.3711 51.1221 72.5061 50.5551 72.5061 49.9611C72.5061 49.3671 72.3711 48.8271 72.1551 48.3141C71.9391 47.8281 71.6421 47.3691 71.2641 46.9911C70.8861 46.6131 70.4271 46.3161 69.9141 46.1001C69.4011 45.8841 68.8611 45.7761 68.2671 45.7761Z" fill="#0DAA41"></path>
    <path fill-rule="evenodd" clip-rule="evenodd" d="M66.6315 17.9613C61.8332 16.3682 56.7681 15.7357 51.7253 16.1001C46.6826 16.4645 41.761 17.8185 37.2415 20.085C32.7221 22.3514 28.6933 25.4858 25.3852 29.3092C22.0771 33.1326 19.5545 37.5701 17.9613 42.3685C16.3682 47.1668 15.7357 52.2319 16.1001 57.2747C16.4645 62.3174 17.8185 67.239 20.085 71.7585C22.3514 76.2779 25.4858 80.3067 29.3092 83.6148C33.1326 86.9229 37.5701 89.4456 42.3685 91.0387C47.1668 92.6318 52.2319 93.2643 57.2747 92.8999C62.3174 92.5355 67.239 91.1815 71.7585 88.915C76.2779 86.6486 80.3067 83.5142 83.6148 79.6908C86.9229 75.8674 89.4456 71.4299 91.0387 66.6315C92.6318 61.8332 93.2643 56.7681 92.8999 51.7253C92.5355 46.6826 91.1815 41.761 88.915 37.2415C86.6486 32.7221 83.5142 28.6933 79.6908 25.3852C75.8674 22.0771 71.4299 19.5545 66.6315 17.9613ZM50.5722 0.141724C57.7107 -0.37408 64.8808 0.521186 71.6732 2.7764C78.4657 5.03162 84.7474 8.60263 90.1597 13.2855C95.5721 17.9684 100.009 23.6715 103.217 30.0692C106.426 36.4668 108.342 43.4338 108.858 50.5722C109.374 57.7106 108.479 64.8808 106.224 71.6732C103.968 78.4656 100.397 84.7474 95.7145 90.1597C91.0316 95.5721 85.3285 100.009 78.9308 103.217C72.5332 106.426 65.5662 108.342 58.4278 108.858C51.2894 109.374 44.1192 108.479 37.3268 106.224C30.5344 103.968 24.2526 100.397 18.8403 95.7145C13.4279 91.0316 8.9909 85.3285 5.7826 78.9308C2.5743 72.5331 0.657529 65.5662 0.141724 58.4278C-0.37408 51.2894 0.521185 44.1192 2.7764 37.3268C5.03162 30.5344 8.60263 24.2526 13.2855 18.8403C17.9684 13.4279 23.6715 8.9909 30.0692 5.7826C36.4669 2.5743 43.4338 0.657528 50.5722 0.141724Z" fill="#D3E0D7"></path>
    <path d="M54.5001 0C68.2142 1.63539e-07 81.4242 5.17029 91.4948 14.4794C101.565 23.7886 107.756 36.5522 108.832 50.224C109.908 63.8958 105.79 77.4708 97.2999 88.2407C88.8095 99.0106 76.571 106.184 63.0257 108.329C49.4805 110.474 35.6243 107.434 24.2215 99.815C12.8186 92.1959 4.7074 80.5579 1.50593 67.2227C-1.69553 53.8875 0.248117 39.8355 6.94914 27.87C13.6502 15.9046 24.6159 6.90524 37.6588 2.66738L42.6398 17.9973C33.4544 20.9818 25.7319 27.3195 21.0127 35.7461C16.2936 44.1727 14.9248 54.0686 17.1794 63.4598C19.434 72.851 25.1463 81.047 33.1766 86.4127C41.207 91.7785 50.9651 93.9195 60.5042 92.4086C70.0433 90.8978 78.6622 85.8462 84.6415 78.2616C90.6207 70.677 93.5207 61.1169 92.763 51.4887C92.0052 41.8604 87.6454 32.8717 80.5533 26.3159C73.4612 19.76 64.1582 16.1188 54.5001 16.1188V0Z" fill="white"></path>
    <path fill-rule="evenodd" clip-rule="evenodd" d="M37.6588 2.66738C37.6563 2.6682 37.6537 2.66903 37.6512 2.66986C32.4525 4.35984 27.5839 6.80631 23.184 9.89557C16.5478 14.5549 10.9778 20.6764 6.94914 27.87C0.248117 39.8355 -1.69553 53.8875 1.50593 67.2227C4.7074 80.5579 12.8186 92.1959 24.2215 99.815C35.6243 107.434 49.4805 110.474 63.0257 108.329C76.571 106.184 88.8095 99.0106 97.2999 88.2407C105.79 77.4708 109.908 63.8958 108.832 50.224C107.756 36.5522 101.565 23.7886 91.4948 14.4794C85.4404 8.88281 78.2513 4.78212 70.5001 2.40149C65.3584 0.822304 59.9693 0 54.5001 0V16.1188C55.9896 16.1188 57.4706 16.2054 58.9364 16.376C66.975 17.3112 74.5549 20.771 80.5533 26.3159C87.6454 32.8717 92.0052 41.8604 92.763 51.4887C93.5207 61.1169 90.6207 70.677 84.6415 78.2616C78.6622 85.8462 70.0433 90.8978 60.5042 92.4086C50.9651 93.9195 41.207 91.7785 33.1766 86.4127C25.1463 81.047 19.434 72.851 17.1794 63.4598C14.9248 54.0686 16.2936 44.1727 21.0127 35.7461C25.0041 28.619 31.1439 22.9863 38.5001 19.6127C39.8414 18.9976 41.2232 18.4576 42.6398 17.9973L37.6588 2.66738Z" fill="#0DAA41"></path>
    <path fill-rule="evenodd" clip-rule="evenodd" d="M37.6588 2.66738C37.6563 2.6682 37.6537 2.66903 37.6512 2.66986C32.4525 4.35984 27.5839 6.80631 23.184 9.89557C16.5478 14.5549 10.9778 20.6764 6.94914 27.87C0.248117 39.8355 -1.69553 53.8875 1.50593 67.2227C4.7074 80.5579 12.8186 92.1959 24.2215 99.815C35.6243 107.434 49.4805 110.474 63.0257 108.329C76.571 106.184 88.8095 99.0106 97.2999 88.2407C105.79 77.4708 109.908 63.8958 108.832 50.224C107.756 36.5522 101.565 23.7886 91.4948 14.4794C85.4404 8.88281 78.2513 4.78212 70.5001 2.40149C65.3584 0.822304 59.9693 0 54.5001 0V16.1188C55.9896 16.1188 57.4706 16.2054 58.9364 16.376C66.975 17.3112 74.5549 20.771 80.5533 26.3159C87.6454 32.8717 92.0052 41.8604 92.763 51.4887C93.5207 61.1169 90.6207 70.677 84.6415 78.2616C78.6622 85.8462 70.0433 90.8978 60.5042 92.4086C50.9651 93.9195 41.207 91.7785 33.1766 86.4127C25.1463 81.047 19.434 72.851 17.1794 63.4598C14.9248 54.0686 16.2936 44.1727 21.0127 35.7461C25.0041 28.619 31.1439 22.9863 38.5001 19.6127C39.8414 18.9976 41.2232 18.4576 42.6398 17.9973L37.6588 2.66738Z" fill="#0DAA41"></path>
  </symbol>
  <symbol fill="none" xmlns="http://www.w3.org/2000/svg" viewBox="0 0 28 27" id="star">
    <path fill-rule="evenodd" clip-rule="evenodd" d="M14 21.6438L21.2432 25.894C22.0036 26.3402 22.9274 25.6555 22.7217 24.7982L20.81 16.8313L27.1453 11.4955C27.8278 10.9206 27.4727 9.80735 26.5833 9.73399L18.215 9.04375L14.9167 1.47777C14.5677 0.677261 13.4323 0.677259 13.0833 1.47777L9.785 9.04375L1.41674 9.73399C0.527343 9.80735 0.172174 10.9206 0.854748 11.4955L7.19 16.8313L5.27832 24.7982C5.0726 25.6555 5.99641 26.3402 6.75681 25.894L14 21.6438Z" fill="#00A738"></path>
  </symbol>
  <symbol fill="none" xmlns="http://www.w3.org/2000/svg" viewBox="0 0 180 36" id="glassdoor">
    <path fill-rule="evenodd" clip-rule="evenodd" d="M180 8.32196C179.994 8.21799 179.962 8.11727 179.906 8.02917C179.851 7.94108 179.775 7.86855 179.685 7.81805C179.277 7.61105 178.682 7.46997 177.471 7.46997C174.738 7.46997 172.321 8.83795 171.266 11.127V8.33093C171.267 8.27329 171.255 8.21616 171.234 8.16284C171.212 8.10953 171.18 8.06122 171.14 8.02039C171.099 7.97955 171.051 7.94709 170.998 7.92499C170.946 7.90288 170.889 7.89148 170.832 7.89148H166.74C166.682 7.89148 166.626 7.90288 166.573 7.92499C166.52 7.94709 166.472 7.97955 166.432 8.02039C166.391 8.06122 166.359 8.10953 166.338 8.16284C166.316 8.21616 166.305 8.27329 166.305 8.33093V27.18C166.305 27.4215 166.499 27.618 166.74 27.618H171.027C171.084 27.618 171.14 27.6067 171.193 27.5847C171.246 27.5626 171.294 27.5303 171.334 27.4896C171.374 27.449 171.406 27.4007 171.428 27.3475C171.45 27.2944 171.461 27.2375 171.461 27.18V18.702C171.461 14.9145 174.073 13.032 177.471 13.032C178.264 13.032 179.055 13.2091 179.453 13.3411C179.725 13.4311 180 13.2059 180 12.9164V8.32196ZM152.606 22.992C149.675 22.992 147.41 20.9026 147.41 17.7466C147.41 14.5906 149.677 12.4995 152.606 12.4995C155.535 12.4995 157.801 14.5906 157.801 17.7466C157.801 20.9026 155.535 22.9935 152.606 22.9935V22.992ZM152.606 7.40845C146.59 7.40845 142.099 11.5921 142.099 17.7466C142.099 23.9011 146.591 28.0831 152.606 28.0831C158.619 28.0831 163.111 23.901 163.111 17.748C163.111 11.592 158.619 7.40845 152.606 7.40845ZM128.754 22.9935C125.823 22.9935 123.557 20.9026 123.557 17.7466C123.557 14.5906 125.823 12.4995 128.754 12.4995C131.683 12.4995 133.947 14.5906 133.947 17.7466C133.947 20.9026 131.683 22.9935 128.754 22.9935ZM128.754 7.40845C122.738 7.40845 118.245 11.5921 118.245 17.7466C118.245 23.9011 122.738 28.0831 128.754 28.0831C134.766 28.0831 139.259 23.9011 139.259 17.7466C139.259 11.5921 134.766 7.40845 128.754 7.40845ZM104.934 23.0414C102.005 23.0414 99.8167 20.9506 99.8167 17.7556C99.8167 14.5591 102.005 12.468 104.934 12.468C107.826 12.468 110.051 14.4811 110.051 17.7556C110.051 20.9896 107.826 23.0414 104.934 23.0414ZM114.617 0.00146484H110.33C110.214 0.00146484 110.104 0.0476808 110.022 0.129822C109.941 0.211963 109.895 0.323288 109.895 0.439453V10.7325C108.567 8.83804 106.38 7.37695 103.335 7.37695C98.5686 7.37695 94.5059 11.0881 94.5059 17.7556C94.5059 24.4231 98.5671 28.131 103.411 28.131C106.263 28.131 108.489 26.8681 109.897 24.8566V27.18C109.897 27.4215 110.09 27.618 110.328 27.618H114.617C114.855 27.618 115.05 27.423 115.05 27.18V0.439453C115.05 0.323548 115.004 0.212469 114.923 0.130371C114.842 0.0482731 114.732 0.00186178 114.617 0.00146484ZM91.6661 21.6465C91.6661 26.1465 88.4246 28.0785 83.2314 28.0785C79.6418 28.0785 76.5551 27.1035 74.7893 25.0845C74.7225 25.0053 74.6851 24.9054 74.6832 24.8015C74.6813 24.6975 74.715 24.5961 74.7789 24.5145L77.2572 21.2655C77.2954 21.2164 77.3438 21.1763 77.3989 21.1479C77.454 21.1196 77.5145 21.1037 77.5764 21.1013C77.6382 21.0988 77.6998 21.1099 77.757 21.1339C77.8141 21.1578 77.8653 21.1941 77.9072 21.2401C79.2163 22.5946 81.2306 23.4225 83.7387 23.4225C85.1817 23.4225 86.3539 23.0294 86.3539 21.924C86.3539 20.8589 85.3007 20.6221 82.019 19.9111C79.1286 19.3201 75.5345 17.979 75.5345 13.6785C75.5345 9.69303 78.6615 7.40552 83.7758 7.40552C87.1423 7.40552 89.5626 8.43153 91.2674 10.0455C91.4311 10.2 91.446 10.461 91.3076 10.6395L88.9557 13.7236C88.9212 13.7709 88.8774 13.8105 88.827 13.8398C88.7766 13.8692 88.7206 13.8877 88.6628 13.8942C88.6049 13.9007 88.5463 13.8951 88.4907 13.8776C88.4351 13.86 88.3837 13.831 88.3398 13.7924C87.1869 12.7529 85.2694 12.1005 83.3861 12.1005C81.7855 12.1005 80.887 12.6136 80.887 13.4806C80.887 14.4676 81.9431 14.7045 85.4182 15.4545C88.8144 16.2045 91.6661 17.505 91.6661 21.648V21.6465ZM71.8423 21.6584C71.8423 26.1569 68.5993 28.0906 63.4061 28.0906C59.818 28.0906 56.7312 27.1155 54.9654 25.095C54.8988 25.0161 54.8614 24.9164 54.8592 24.8128C54.857 24.7092 54.8903 24.6081 54.9535 24.5264L57.4319 21.2759C57.4704 21.2272 57.5188 21.1874 57.574 21.1593C57.6292 21.1312 57.6897 21.1156 57.7515 21.1133C57.8132 21.1111 57.8748 21.1222 57.9318 21.1461C57.9889 21.1701 58.0401 21.2062 58.082 21.252C59.3926 22.605 61.4068 23.4346 63.9134 23.4346C65.3578 23.4346 66.5301 23.0416 66.5301 21.9346C66.5301 20.8696 65.4754 20.634 62.1952 19.923C59.3033 19.3305 55.7092 17.9894 55.7092 13.6904C55.7092 9.70493 58.8362 7.41742 63.9521 7.41742C67.317 7.41742 69.7359 8.44193 71.4422 10.0574C71.6058 10.2119 71.6206 10.4714 71.4838 10.6514L69.1304 13.7355C68.9817 13.9305 68.699 13.9695 68.516 13.8045C67.3616 12.765 65.4457 12.111 63.5624 12.111C61.9602 12.111 61.0616 12.6255 61.0616 13.4925C61.0616 14.4795 62.1179 14.7166 65.5929 15.4666C68.9906 16.2151 71.8409 17.5169 71.8409 21.6584H71.8423ZM46.1469 19.6485C46.1469 21.8175 44.3916 23.712 41.6559 23.712C39.8589 23.712 38.883 22.8824 38.883 21.6194C38.883 20.5154 39.7041 19.6859 41.3048 19.4489L46.1469 18.858V19.647V19.6485ZM42.7507 7.45642C38.6598 7.45642 35.579 8.83941 34.2015 11.5739C34.1561 11.6688 34.1453 11.7769 34.1711 11.879C34.197 11.9811 34.2578 12.0707 34.3428 12.132L37.4683 14.3881C37.6646 14.5291 37.9413 14.4824 38.0588 14.2679C38.9276 12.6899 40.8704 12.1514 42.7507 12.1514C45.055 12.1514 46.1469 12.9795 46.1469 14.124V14.439C46.1469 14.913 45.8747 15.1499 45.1324 15.2294L39.7815 15.702C36.1889 16.056 33.5335 18.3061 33.5335 21.8956C33.5335 25.5256 36.2663 28.0499 40.1326 28.0499C43.1792 28.0499 45.1324 26.5516 46.1469 24.9736V27.2175C46.1469 27.4605 46.3403 27.657 46.5813 27.657H50.8686C50.9838 27.657 51.0943 27.6108 51.1758 27.5286C51.2572 27.4465 51.303 27.3352 51.303 27.219V15.4651C51.303 9.98109 48.4512 7.45642 42.7493 7.45642H42.7507ZM29.996 0.437988V27.1785C29.996 27.42 29.8027 27.6165 29.5617 27.6165H25.2357C25.1205 27.6165 25.01 27.5703 24.9285 27.4882C24.8471 27.406 24.8013 27.2947 24.8013 27.1785V0.430481C24.8013 0.191981 24.9917 0 25.2268 0H29.5617C29.8012 0 29.996 0.194988 29.996 0.437988ZM10.4281 23.0206C7.49754 23.0206 5.31075 20.9295 5.31075 17.7345C5.31075 14.5395 7.49902 12.447 10.4281 12.447C13.3587 12.447 15.5052 14.46 15.5052 17.7345C15.5052 20.9685 13.3572 23.0206 10.4281 23.0206ZM20.1094 7.87042H15.8281C15.7113 7.87042 15.5994 7.91734 15.5168 8.00061C15.4342 8.08388 15.3878 8.1967 15.3878 8.31445V10.6335C14.2944 8.85748 12.0288 7.39655 9.02232 7.39655C4.17868 7.39655 0 11.067 0 17.6565C0 24.204 3.98378 27.7936 9.17849 27.7936C11.9901 27.7936 14.1768 26.61 15.4666 24.756V26.0189C15.4666 28.8584 14.098 31.1085 9.72444 31.1085C7.52577 31.1085 5.75999 30.369 4.2114 28.9845C4.16516 28.9415 4.11001 28.9093 4.04996 28.8904C3.98991 28.8714 3.92651 28.8661 3.86419 28.8748C3.80187 28.8836 3.74221 28.9061 3.68959 28.9409C3.63697 28.9757 3.59266 29.0219 3.55984 29.076L1.61853 32.3641C1.36713 32.7886 1.40128 33.0286 1.55897 33.1681C3.55533 34.9186 6.14976 36 9.92084 36C18.122 36 20.5438 31.386 20.5438 26.295V8.31006C20.544 8.25241 20.5329 8.19528 20.5112 8.14197C20.4895 8.08865 20.4575 8.04016 20.4171 7.99933C20.3768 7.9585 20.3288 7.92604 20.276 7.90393C20.2232 7.88183 20.1666 7.87042 20.1094 7.87042Z" fill="#0CAA41"></path>
  </symbol>
</svg>