<svg width="179" height="35" viewBox="0 0 179 35" fill="none" xmlns="http://www.w3.org/2000/svg">
<path fill-rule="evenodd" clip-rule="evenodd" d="M18 26.6438L25.2432 30.894C26.0036 31.3402 26.9274 30.6555 26.7217 29.7982L24.81 21.8313L31.1453 16.4955C31.8278 15.9206 31.4727 14.8074 30.5833 14.734L22.215 14.0438L18.9167 6.47777C18.5677 5.67726 17.4323 5.67726 17.0833 6.47777L13.785 14.0438L5.41674 14.734C4.52734 14.8074 4.17217 15.9206 4.85475 16.4955L11.19 21.8313L9.27832 29.7982C9.0726 30.6555 9.99641 31.3402 10.7568 30.894L18 26.6438Z" fill="#00A738"/>
<mask id="mask0_1_243559" style="mask-type:alpha" maskUnits="userSpaceOnUse" x="4" y="5" width="28" height="27">
<path fill-rule="evenodd" clip-rule="evenodd" d="M18 26.6438L25.2432 30.894C26.0036 31.3402 26.9274 30.6555 26.7217 29.7982L24.81 21.8313L31.1453 16.4955C31.8278 15.9206 31.4727 14.8074 30.5833 14.734L22.215 14.0438L18.9167 6.47777C18.5677 5.67726 17.4323 5.67726 17.0833 6.47777L13.785 14.0438L5.41674 14.734C4.52734 14.8074 4.17217 15.9206 4.85475 16.4955L11.19 21.8313L9.27832 29.7982C9.0726 30.6555 9.99641 31.3402 10.7568 30.894L18 26.6438Z" fill="white"/>
</mask>
<g mask="url(#mask0_1_243559)">
<rect width="36" height="35" fill="#0DAA41"/>
</g>
<path fill-rule="evenodd" clip-rule="evenodd" d="M54 26.6438L61.2432 30.894C62.0036 31.3402 62.9274 30.6555 62.7217 29.7982L60.81 21.8313L67.1453 16.4955C67.8278 15.9206 67.4727 14.8074 66.5833 14.734L58.215 14.0438L54.9167 6.47777C54.5677 5.67726 53.4323 5.67726 53.0833 6.47777L49.785 14.0438L41.4167 14.734C40.5273 14.8074 40.1722 15.9206 40.8547 16.4955L47.19 21.8313L45.2783 29.7982C45.0726 30.6555 45.9964 31.3402 46.7568 30.894L54 26.6438Z" fill="#00A738"/>
<mask id="mask1_1_243559" style="mask-type:alpha" maskUnits="userSpaceOnUse" x="40" y="5" width="28" height="27">
<path fill-rule="evenodd" clip-rule="evenodd" d="M54 26.6438L61.2432 30.894C62.0036 31.3402 62.9274 30.6555 62.7217 29.7982L60.81 21.8313L67.1453 16.4955C67.8278 15.9206 67.4727 14.8074 66.5833 14.734L58.215 14.0438L54.9167 6.47777C54.5677 5.67726 53.4323 5.67726 53.0833 6.47777L49.785 14.0438L41.4167 14.734C40.5273 14.8074 40.1722 15.9206 40.8547 16.4955L47.19 21.8313L45.2783 29.7982C45.0726 30.6555 45.9964 31.3402 46.7568 30.894L54 26.6438Z" fill="white"/>
</mask>
<g mask="url(#mask1_1_243559)">
<rect x="36" width="36" height="35" fill="#0DAA41"/>
</g>
<path fill-rule="evenodd" clip-rule="evenodd" d="M89.5001 26.6438L96.4836 30.8587C97.2409 31.3158 98.1751 30.6368 97.9742 29.7754L96.1209 21.8313L102.292 16.4852C102.961 15.906 102.603 14.8078 101.722 14.733L93.598 14.0438L90.4208 6.54737C90.0762 5.73434 88.924 5.73434 88.5794 6.54737L85.4022 14.0438L77.2784 14.733C76.397 14.8078 76.0395 15.906 76.7081 16.4852L82.8792 21.8313L81.026 29.7754C80.825 30.6368 81.7593 31.3158 82.5166 30.8587L89.5001 26.6438Z" fill="#00A738"/>
<mask id="mask2_1_243559" style="mask-type:alpha" maskUnits="userSpaceOnUse" x="76" y="5" width="27" height="27">
<path fill-rule="evenodd" clip-rule="evenodd" d="M89.5001 26.6438L96.4836 30.8587C97.2409 31.3158 98.1751 30.6368 97.9742 29.7754L96.1209 21.8313L102.292 16.4852C102.961 15.906 102.603 14.8078 101.722 14.733L93.598 14.0438L90.4208 6.54737C90.0762 5.73434 88.924 5.73434 88.5794 6.54737L85.4022 14.0438L77.2784 14.733C76.397 14.8078 76.0395 15.906 76.7081 16.4852L82.8792 21.8313L81.026 29.7754C80.825 30.6368 81.7593 31.3158 82.5166 30.8587L89.5001 26.6438Z" fill="white"/>
</mask>
<g mask="url(#mask2_1_243559)">
<rect x="72" width="35" height="35" fill="#0DAA41"/>
</g>
<path fill-rule="evenodd" clip-rule="evenodd" d="M125 26.6438L132.243 30.894C133.004 31.3402 133.927 30.6555 133.722 29.7982L131.81 21.8313L138.145 16.4955C138.828 15.9206 138.473 14.8074 137.583 14.734L129.215 14.0438L125.917 6.47777C125.568 5.67726 124.432 5.67726 124.083 6.47777L120.785 14.0438L112.417 14.734C111.527 14.8074 111.172 15.9206 111.855 16.4955L118.19 21.8313L116.278 29.7982C116.073 30.6555 116.996 31.3402 117.757 30.894L125 26.6438Z" fill="#00A738"/>
<mask id="mask3_1_243559" style="mask-type:alpha" maskUnits="userSpaceOnUse" x="111" y="5" width="28" height="27">
<path fill-rule="evenodd" clip-rule="evenodd" d="M125 26.6438L132.243 30.894C133.004 31.3402 133.927 30.6555 133.722 29.7982L131.81 21.8313L138.145 16.4955C138.828 15.9206 138.473 14.8074 137.583 14.734L129.215 14.0438L125.917 6.47777C125.568 5.67726 124.432 5.67726 124.083 6.47777L120.785 14.0438L112.417 14.734C111.527 14.8074 111.172 15.9206 111.855 16.4955L118.19 21.8313L116.278 29.7982C116.073 30.6555 116.996 31.3402 117.757 30.894L125 26.6438Z" fill="white"/>
</mask>
<g mask="url(#mask3_1_243559)">
<rect x="107" width="36" height="35" fill="#0DAA41"/>
</g>
<path fill-rule="evenodd" clip-rule="evenodd" d="M161 26.6438L168.243 30.894C169.004 31.3402 169.927 30.6555 169.722 29.7982L167.81 21.8313L174.145 16.4955C174.828 15.9206 174.473 14.8074 173.583 14.734L165.215 14.0438L161.917 6.47777C161.568 5.67726 160.432 5.67726 160.083 6.47777L156.785 14.0438L148.417 14.734C147.527 14.8074 147.172 15.9206 147.855 16.4955L154.19 21.8313L152.278 29.7982C152.073 30.6555 152.996 31.3402 153.757 30.894L161 26.6438Z" fill="#00A738"/>
<mask id="mask4_1_243559" style="mask-type:alpha" maskUnits="userSpaceOnUse" x="147" y="5" width="28" height="27">
<path fill-rule="evenodd" clip-rule="evenodd" d="M161 26.6438L168.243 30.894C169.004 31.3402 169.927 30.6555 169.722 29.7982L167.81 21.8313L174.145 16.4955C174.828 15.9206 174.473 14.8074 173.583 14.734L165.215 14.0438L161.917 6.47777C161.568 5.67726 160.432 5.67726 160.083 6.47777L156.785 14.0438L148.417 14.734C147.527 14.8074 147.172 15.9206 147.855 16.4955L154.19 21.8313L152.278 29.7982C152.073 30.6555 152.996 31.3402 153.757 30.894L161 26.6438Z" fill="white"/>
</mask>
<g mask="url(#mask4_1_243559)">
<rect x="143" width="36" height="35" fill="#0DAA41"/>
</g>
</svg>
