<svg class="hidden">
  <symbol fill="" xmlns="http://www.w3.org/2000/svg" viewBox="0 0 124 28" id="heineken">
    <g clip-path="url(#clip0_1_258509)">
      <path d="M94.432 12.7382H91.424C90.6992 12.7382 90.1439 12.9293 89.5696 13.6245C88.9953 14.3197 85.3207 18.7602 85.3207 18.7602V12.7382H81.1465V28.1283C81.1475 28.3598 81.2356 28.5816 81.3917 28.7454C81.5479 28.9091 81.7593 29.0015 81.9801 29.0026H85.3169V21.626L88.9966 27.6573C89.5456 28.5581 90.0895 29.0026 91.3405 29.0026H94.7685L88.9157 19.4064L94.432 12.7382Z" fill=""></path>
      <path d="M76.7857 12.7382H67.4961V27.5458C67.4961 28.3565 68.255 29.0052 69.0621 29.0052H76.7857C77.0069 29.0045 77.2189 28.9121 77.3753 28.748C77.5317 28.5839 77.6199 28.3616 77.6205 28.1296V26.0267H72.2914C72.1248 26.025 71.9655 25.9543 71.8483 25.8301C71.731 25.7059 71.6653 25.5382 71.6653 25.3634V21.9417H76.4151V18.9712H71.6653V15.7167H77.6205V13.6205C77.6199 13.3885 77.5317 13.1662 77.3753 13.0021C77.2189 12.838 77.0069 12.7456 76.7857 12.7449" fill=""></path>
      <path d="M106.135 12.7382H96.8438V27.5458C96.8438 28.3565 97.6027 29.0052 98.4097 29.0052H106.135C106.356 29.0045 106.568 28.912 106.724 28.7479C106.88 28.5838 106.968 28.3615 106.968 28.1296V26.0267H101.639C101.473 26.0246 101.314 25.9538 101.197 25.8297C101.08 25.7055 101.014 25.5379 101.014 25.3634V21.9417H105.764V18.9712H101.014V15.7167H106.968V13.6205C106.968 13.3886 106.88 13.1663 106.724 13.0022C106.568 12.8381 106.356 12.7456 106.135 12.7449" fill=""></path>
      <path d="M47.0063 12.7382H42.832V28.1283C42.8334 28.36 42.9218 28.5817 43.0781 28.7454C43.2344 28.9091 43.446 29.0015 43.6669 29.0026H47.0038L47.0063 12.7382Z" fill=""></path>
      <path d="M38.2042 12.7382H28.9121V27.5458C28.9121 28.391 29.6774 29.0052 30.4794 29.0052H38.2042C38.4252 29.0042 38.6369 28.9116 38.793 28.7475C38.9492 28.5835 39.0372 28.3614 39.0378 28.1296V26.0267H33.7062C33.5397 26.0246 33.3808 25.9538 33.2639 25.8297C33.1469 25.7055 33.0813 25.5379 33.0813 25.3634V21.9417H37.8298V18.9712H33.0838V15.7167H39.0378V13.6205C39.0372 13.3887 38.9492 13.1666 38.793 13.0026C38.6369 12.8385 38.4252 12.7459 38.2042 12.7449" fill=""></path>
      <path d="M24.6991 12.7382H20.5249V18.9738H16.8819V12.7382H12.041V13.3777C12.2432 13.469 12.4147 13.6216 12.5335 13.8159C12.6523 14.0103 12.7129 14.2375 12.7076 14.4683V28.9999H16.8819V21.9444H20.5299V28.9999H24.7042L24.6991 12.7382Z" fill=""></path>
      <path d="M63.2834 12.7382V28.1283C63.2824 28.3598 63.1943 28.5816 63.0382 28.7454C62.8821 28.9091 62.6706 29.0015 62.4499 29.0026H59.8897L54.2582 19.6823C54.3359 20.2599 54.3748 20.8424 54.3746 21.4256V29.0026H51.2578V12.7382H53.2817C54.3139 12.7382 55.0652 13.1853 55.6054 14.0769C56.0645 14.8331 60.3223 21.8608 60.3223 21.8608C60.3223 21.8608 60.1692 21.3819 60.1692 20.0989V12.7382H63.2834Z" fill=""></path>
      <path d="M123.185 12.7382V13.3777C122.985 13.4725 122.817 13.6261 122.699 13.8197C122.582 14.0134 122.521 14.2388 122.523 14.4683V28.1256C122.523 28.3568 122.436 28.5786 122.28 28.7425C122.125 28.9063 121.914 28.9989 121.693 28.9999H119.137L113.504 19.6797C113.582 20.2572 113.621 20.8397 113.621 21.423V28.9999H110.504V12.7382H112.528C113.559 12.7382 114.311 13.1853 114.851 14.0769C115.311 14.8331 119.567 21.8608 119.567 21.8608C119.567 21.8608 119.415 21.3819 119.415 20.0989V12.7382H123.185Z" fill=""></path>
      <path d="M4.26985 18.6591C4.22703 18.7001 4.17208 18.7244 4.1142 18.728C4.05632 18.7316 3.99903 18.7142 3.95191 18.6788C3.9048 18.6433 3.87071 18.592 3.85536 18.5334C3.84002 18.4747 3.84434 18.4123 3.86761 18.3566C3.98145 17.9958 6.07743 11.2228 6.07743 11.2228L0.294195 6.81542C0.244068 6.78498 0.205419 6.73742 0.184703 6.68069C0.163987 6.62395 0.162459 6.56148 0.180375 6.50371C0.198292 6.44594 0.234567 6.39636 0.28314 6.36327C0.331713 6.33017 0.389643 6.31556 0.447251 6.32188H7.59534C7.59534 6.32188 9.69385 -0.444441 9.8039 -0.807965C9.81551 -0.867949 9.84654 -0.921877 9.89172 -0.960612C9.9369 -0.999347 9.99347 -1.02051 10.0518 -1.02051C10.1102 -1.02051 10.1667 -0.999347 10.2119 -0.960612C10.2571 -0.921877 10.2881 -0.867949 10.2997 -0.807965C10.4111 -0.445768 12.5096 6.32055 12.5096 6.32055C12.5096 6.32055 19.2934 6.32055 19.6564 6.32055C19.714 6.31424 19.7719 6.32885 19.8205 6.36194C19.8691 6.39504 19.9054 6.44461 19.9233 6.50238C19.9412 6.56016 19.9397 6.62263 19.9189 6.67936C19.8982 6.73609 19.8596 6.78365 19.8095 6.81409L16.36 9.445H12.2794L11.0144 5.37592L9.74951 9.445H5.67645L8.97917 11.9658L7.71424 16.0349L4.26985 18.6591Z" fill=""></path>
    </g>
    <defs>
      <clipPath id="clip0_1_258509">
        <rect width="123" height="30" fill="white" transform="translate(0.18457 -1)"></rect>
      </clipPath>
    </defs>
  </symbol>
  <symbol fill="" xmlns="http://www.w3.org/2000/svg" viewBox="0 0 68 20" id="kfc">
    <path d="M61.9171 0C50.2284 0.00265252 47.2637 6.27321 46.7863 10.5305C46.2447 15.3103 49.7259 20 58.3075 20C61.9199 20 64.2817 19.4032 65.1192 19.1512C65.2232 19.1201 65.3164 19.0628 65.3887 18.9852C65.461 18.9076 65.5097 18.8128 65.5296 18.7109L66.0125 16.2971C66.0292 16.2141 66.0229 16.1285 65.9943 16.0486C65.9657 15.9686 65.9158 15.8971 65.8494 15.841C65.783 15.7848 65.7025 15.746 65.6156 15.7283C65.5287 15.7107 65.4385 15.7147 65.3537 15.7401C64.4157 16.0212 62.7574 16.4085 60.6497 16.4085C56.5488 16.4085 53.5868 14.069 53.9637 10.0424C54.3266 6.14324 57.0931 3.17241 60.901 3.17241C63.1901 3.17241 64.2035 4.313 64.1281 5.83289V5.92042C64.1248 5.98605 64.1354 6.05166 64.1593 6.1133C64.1832 6.17495 64.22 6.23136 64.2675 6.27917C64.3149 6.32697 64.3721 6.36518 64.4354 6.3915C64.4988 6.41783 64.5671 6.43172 64.6362 6.43236H66.1912C66.4313 6.43236 66.6379 6.27321 66.6937 6.05305L67.7824 1.38462C67.817 1.24237 67.7929 1.09294 67.715 0.967107C67.6371 0.841272 67.5114 0.748614 67.3637 0.708223C65.5916 0.23772 63.7599 0.000319598 61.9199 0.00265359L61.9171 0ZM5.64539 0.307693C5.51871 0.307753 5.39581 0.348747 5.29688 0.423942C5.19796 0.499138 5.12889 0.604064 5.10102 0.721486L4.79952 2.00531C4.77036 2.13161 4.79126 2.2637 4.85822 2.37627C4.92519 2.48884 5.03351 2.57398 5.16243 2.61538L5.25456 2.64191C5.83523 2.85942 6.51081 3.34748 6.22606 4.626L4.01506 14.2281C3.43718 16.8462 2.50197 17.3846 1.61422 17.4801H1.5863C1.46852 17.4911 1.35746 17.5373 1.26915 17.6122C1.18084 17.687 1.11984 17.7866 1.09497 17.8966L0.810216 19.1273C0.793138 19.2016 0.793759 19.2785 0.812034 19.3525C0.830309 19.4264 0.865775 19.4956 0.915832 19.5548C0.965889 19.6141 1.02927 19.662 1.10132 19.6949C1.17338 19.7279 1.25229 19.7451 1.33226 19.7454H11.0668C11.3041 19.7454 11.5107 19.5862 11.5609 19.3687L11.8959 17.9284C11.9217 17.8154 11.9044 17.6974 11.8472 17.5954C11.7899 17.4934 11.6964 17.414 11.5833 17.3714L11.5219 17.3448C11.0277 17.1591 10.3549 16.7507 10.528 15.992L11.6587 11.0849C15.5363 17.809 16.8177 19.748 21.4686 19.7454H25.6729C25.7881 19.7455 25.8999 19.7082 25.9898 19.6397C26.0796 19.5712 26.1422 19.4756 26.167 19.3687L26.4601 18.122C26.4779 18.0472 26.478 17.9696 26.4604 17.8948C26.4427 17.8199 26.4078 17.7498 26.3581 17.6893C26.3084 17.6289 26.2452 17.5797 26.173 17.5454C26.1008 17.511 26.0215 17.4924 25.9409 17.4907C24.8912 17.4748 24.3775 17.244 23.3306 15.9655L17.9371 9.03183L24.9442 3.49337C25.885 2.7931 27.0324 2.59682 27.6689 2.51724L27.7303 2.51194C27.8389 2.50208 27.9414 2.45982 28.0232 2.3912C28.1049 2.32259 28.1617 2.23114 28.1854 2.12997L28.4729 0.899206C28.4892 0.827946 28.4884 0.754128 28.4707 0.683177C28.453 0.612227 28.4188 0.545946 28.3706 0.489207C28.3224 0.432468 28.2614 0.386712 28.1922 0.355301C28.1229 0.323889 28.0471 0.307621 27.9704 0.307693H19.5395C19.4141 0.308337 19.2925 0.349325 19.1947 0.42398C19.0969 0.498635 19.0285 0.602561 19.0008 0.718835L18.716 1.93899C18.6854 2.06992 18.7081 2.20701 18.7796 2.32266C18.8511 2.43831 18.966 2.52395 19.1013 2.56234C19.5982 2.74536 19.707 3.19894 19.2771 3.53316L12.0942 9.20424L13.3225 3.86207C13.4059 3.5548 13.5729 3.27375 13.8066 3.04704C14.0403 2.82034 14.3325 2.65594 14.6541 2.57029L14.7239 2.54907C14.8173 2.52137 14.9013 2.47072 14.9675 2.40225C15.0337 2.33378 15.0797 2.24992 15.1008 2.15915L15.3967 0.893901C15.413 0.8237 15.4125 0.750915 15.3953 0.680921C15.378 0.610926 15.3444 0.545508 15.297 0.489495C15.2495 0.433483 15.1895 0.388306 15.1212 0.357299C15.053 0.326292 14.9782 0.310246 14.9026 0.310346L5.64539 0.307693ZM30.4355 0.307693C30.3092 0.308353 30.187 0.349623 30.0886 0.42477C29.9903 0.499916 29.9216 0.604506 29.8939 0.721486L29.5952 2.00265C29.5665 2.12304 29.5854 2.24922 29.6482 2.35727C29.711 2.46532 29.8133 2.54772 29.9357 2.58886L29.9916 2.61008C30.5611 2.81432 31.3511 3.33687 31.0077 4.62069L27.6298 19.1565C27.613 19.2272 27.6133 19.3007 27.6304 19.3713C27.6476 19.442 27.6813 19.508 27.7291 19.5646C27.7768 19.6212 27.8374 19.6668 27.9062 19.6981C27.975 19.7294 28.0504 19.7455 28.1267 19.7454H35.8792C36.1193 19.7454 36.3259 19.5862 36.3789 19.366L36.7139 17.9151C36.738 17.8118 36.7239 17.7038 36.6741 17.6091C36.6243 17.5145 36.5418 17.439 36.4403 17.3952C36.4151 17.384 36.39 17.3725 36.365 17.3607C35.8736 17.1326 35.1422 16.6048 35.3879 15.5836C35.413 15.4509 36.1416 12.2944 36.1416 12.2944H42.7356C42.9756 12.2944 43.1822 12.1353 43.2381 11.9151L43.855 9.2626C43.8723 9.19111 43.8723 9.11681 43.8551 9.04531C43.8378 8.97381 43.8037 8.90695 43.7554 8.84977C43.707 8.79259 43.6456 8.74656 43.5759 8.71515C43.5061 8.68375 43.4297 8.66777 43.3525 8.66844H36.9875L38.1796 3.52255L42.6239 3.51459C44.0616 3.51459 44.4999 4.23077 44.4161 5.44562L44.4106 5.50928C44.4023 5.57767 44.4093 5.64695 44.4313 5.71257C44.4532 5.77819 44.4894 5.83866 44.5377 5.89001C44.5859 5.94136 44.6451 5.98244 44.7112 6.01054C44.7773 6.03864 44.849 6.05313 44.9214 6.05305H46.5602C46.8002 6.05305 47.0068 5.8939 47.0571 5.67109L48.1737 0.896552C48.1895 0.825478 48.1884 0.751951 48.1705 0.681336C48.1526 0.61072 48.1183 0.544798 48.0701 0.488375C48.022 0.431951 47.9612 0.38645 47.8922 0.355192C47.8232 0.323934 47.7477 0.307706 47.6712 0.307693H30.4355Z" fill=""></path>
  </symbol>
  <symbol fill="" xmlns="http://www.w3.org/2000/svg" viewBox="0 0 118 28" id="renault">
    <path d="M11.3473 -2.03529C10.9329 -1.25545 5.34631 9.26944 2.93988 13.7915C2.85648 13.9478 2.86289 14.0609 2.94437 14.214C5.30204 18.6449 10.0803 27.6334 10.1297 27.7174C10.1791 27.6341 14.9573 18.6449 17.315 14.2147C17.3964 14.0615 17.4035 13.9485 17.3194 13.7921C15.9703 11.2652 14.6301 8.73319 13.2809 6.20631C13.1943 6.04478 13.1885 5.92396 13.2784 5.76115C13.6492 5.08792 14.0046 4.40628 14.3805 3.69946C14.4338 3.79056 18.0091 10.5119 19.7624 13.805C19.8362 13.9433 19.8426 14.0467 19.7669 14.1895C16.9923 19.4041 14.2221 24.6213 11.4551 29.8405C11.3813 29.98 11.3063 30.0434 11.1382 30.0408C10.453 30.0291 9.76719 30.0324 9.08202 30.0388C8.95499 30.0401 8.88763 29.9994 8.82797 29.8857C6.04688 24.6407 3.26322 19.397 0.476349 14.1552C0.41861 14.046 0.413478 13.9646 0.473142 13.8516C3.26065 8.60849 6.04367 3.36478 8.83118 -1.87699C8.86646 -1.94289 8.94922 -2.02753 9.01081 -2.02818C9.77553 -2.03916 10.5402 -2.03529 11.3473 -2.03529Z" fill=""></path>
    <path d="M14.5169 1.17551C13.2415 3.56929 9.72584 10.1827 7.80954 13.7847C7.72807 13.9385 7.72229 14.0515 7.80569 14.2072C9.15486 16.7348 10.495 19.2662 11.8442 21.7931C11.9308 21.9552 11.9353 22.0754 11.8455 22.2382C11.4747 22.9114 11.1193 23.5931 10.7427 24.3006C10.6926 24.2153 7.11796 17.4933 5.36077 14.1937C5.28699 14.0554 5.28122 13.952 5.35692 13.8093C8.13096 8.59527 10.9011 3.37805 13.6681 -1.84111C13.7425 -1.98131 13.8182 -2.04334 13.985 -2.04076C14.6702 -2.02913 15.356 -2.03236 16.0412 -2.03882C16.1689 -2.04011 16.2349 -1.99811 16.2952 -1.88505C19.077 3.35996 21.8606 8.60366 24.6475 13.8454C24.7059 13.9546 24.7097 14.0367 24.6501 14.1491C21.8632 19.3909 19.0802 24.6346 16.2927 29.8764C16.2574 29.9423 16.1746 30.0262 16.113 30.0269C15.3483 30.0372 14.5836 30.0334 13.7823 30.0334C13.8349 29.93 19.4241 19.3954 22.1846 14.2066C22.268 14.0502 22.2616 13.9372 22.1795 13.7841C19.8218 9.35314 15.0436 0.364657 14.9942 0.281311C14.9852 0.296818 14.8101 0.624388 14.5169 1.17551Z" fill=""></path>
    <path d="M34.0931 20.8125H31.4762V9.36068C31.4762 9.21483 31.4603 9.12003 31.427 9.07336C31.3937 9.02669 31.3126 8.9771 31.1808 8.9246L30.4727 8.64749L30.6884 7.49823H37.2979C39.0024 7.49823 40.229 7.82492 40.9763 8.47831C41.7236 9.1317 42.0972 10.1862 42.0972 11.6388C42.0972 12.788 41.864 13.6733 41.3992 14.2932C40.9328 14.9145 40.2088 15.317 39.2254 15.5022L42.452 20.8125H39.5614L36.6303 15.7998H34.0931V20.8125ZM34.0931 13.8192H37.0039C37.9091 13.8192 38.5549 13.6544 38.9416 13.3233C39.3283 12.9937 39.5223 12.4322 39.5223 11.6388C39.5223 10.86 39.3283 10.3043 38.9416 9.97469C38.5549 9.64508 37.9091 9.47881 37.0039 9.47881H34.0931V13.8192Z" fill=""></path>
    <path d="M54.2375 7.49921V9.52062H47.3124V13.0676H52.8212V15.0088H47.3124V18.7935H54.3939V20.8149H44.6969V9.36311C44.6969 9.21727 44.681 9.12247 44.6477 9.0758C44.6144 9.02913 44.5333 8.97954 44.4015 8.92704L43.6934 8.64993L43.9091 7.50067H54.2375V7.49921Z" fill=""></path>
    <path d="M56.5593 9.36068C56.5593 9.21483 56.5433 9.12003 56.51 9.07336C56.4767 9.02669 56.3956 8.9771 56.2638 8.9246L55.5557 8.64749L55.7714 7.49823H58.7228C58.9198 7.49823 59.0472 7.52157 59.1066 7.56824C59.166 7.61491 59.2731 7.74325 59.431 7.95473L66.2186 17.2072V7.49969H68.6385V20.8125H66.1013L58.9806 11.105V20.8125H56.5607V9.36068H56.5593Z" fill=""></path>
    <path d="M77.9817 7.49921C78.2439 7.97466 78.5262 8.54638 78.8275 9.21289C79.1287 9.87941 79.44 10.6028 79.7615 11.3816C80.083 12.1619 80.4002 12.9728 80.7159 13.8187C81.0301 14.6646 81.3285 15.5032 81.6109 16.3345C81.8933 17.1658 82.1525 17.9665 82.3885 18.7322C82.6246 19.4979 82.8215 20.1921 82.9779 20.812H80.3423C80.1974 20.2709 80.0468 19.7415 79.8904 19.2266C79.7326 18.7118 79.582 18.2028 79.4371 17.7011H73.614C73.4562 18.2028 73.3027 18.7118 73.1521 19.2266C73.0015 19.7415 72.8537 20.2709 72.7089 20.812H70.0732C70.2311 20.1907 70.428 19.4979 70.6641 18.7322C70.9002 17.9665 71.1594 17.1673 71.4418 16.3345C71.7242 15.5017 72.0225 14.6631 72.3367 13.8187C72.651 12.9742 72.9696 12.1619 73.2911 11.3816C73.6126 10.6028 73.9239 9.87941 74.2252 9.21289C74.5264 8.54638 74.8088 7.97466 75.0709 7.49921H77.9817ZM76.5249 9.83565C75.6849 11.7375 74.9246 13.7122 74.2425 15.7599H78.8072C78.099 13.7122 77.3387 11.7389 76.5249 9.83565Z" fill=""></path>
    <path d="M84.2956 9.36068C84.2956 9.21483 84.2782 9.12003 84.2463 9.07336C84.213 9.02669 84.1319 8.9771 84.0001 8.9246L83.292 8.64749L83.5078 7.49823H86.7343C86.8516 7.49823 86.911 7.56386 86.911 7.69658V15.4031C86.911 16.6705 87.1803 17.582 87.7176 18.1377C88.2549 18.6919 89.1267 18.969 90.3345 18.969C91.5538 18.969 92.43 18.6919 92.9615 18.1377C93.493 17.5834 93.758 16.6719 93.758 15.4031V7.49823H96.3748V15.6014C96.3748 16.5655 96.2604 17.3909 96.0302 18.0779C95.8014 18.7648 95.4437 19.3292 94.9585 19.7711C94.4734 20.213 93.8463 20.5368 93.0802 20.7425C92.3127 20.9467 91.3989 21.0487 90.3359 21.0487C89.273 21.0487 88.3592 20.9467 87.5916 20.7425C86.8241 20.5383 86.1985 20.2145 85.7133 19.7711C85.2282 19.3292 84.8705 18.7648 84.6417 18.0779C84.4114 17.3909 84.297 16.5655 84.297 15.6014V9.36068H84.2956Z" fill=""></path>
    <path d="M99.404 9.36068C99.404 9.21483 99.388 9.12003 99.3547 9.07336C99.3214 9.02669 99.2403 8.9771 99.1086 8.9246L98.4004 8.64749L98.6162 7.49823H101.843C101.96 7.49823 102.019 7.56386 102.019 7.69658V18.791H108.058V20.8125H99.4025V9.36068H99.404Z" fill=""></path>
    <path d="M110.893 9.51965H106.604V7.49823H117.798V9.51965H113.51V20.8125H110.893V9.51965Z" fill=""></path>
  </symbol>
  <symbol fill="" xmlns="http://www.w3.org/2000/svg" viewBox="0 0 149 26" id="tayota">
    <path fill-rule="evenodd" clip-rule="evenodd" d="M17.7291 23.9519C15.7656 22.7225 14.3196 18.4803 14.3196 13.4388C14.3196 13.2537 14.3196 13.0717 14.3247 12.8887C8.86532 12.0304 4.92101 9.68053 4.81932 6.90049L4.80305 6.93303C3.46794 8.59251 2.70531 10.5123 2.70531 12.5572C2.70531 18.5748 9.31477 23.5065 17.6905 23.9458L17.7261 23.9529L17.7291 23.9519ZM0.18457 12.9995C0.18457 6.26599 8.56434 0.80658 18.9015 0.80658C29.2387 0.80658 37.6195 6.26599 37.6195 12.9995C37.6195 19.733 29.2387 25.1934 18.9015 25.1934C8.56434 25.1934 0.18457 19.733 0.18457 12.9995ZM18.9015 2.56571C20.8976 2.56571 22.5947 5.59284 23.2241 9.81679V9.81069C27.1064 9.20058 29.8244 7.81158 29.8244 6.18972C29.8244 4.01267 24.9334 2.24947 18.8995 2.24947C12.8656 2.24947 7.97457 4.01267 7.97457 6.18972C7.97457 7.81158 10.6926 9.20567 14.5759 9.81069V9.81679C15.2053 5.59284 16.9024 2.56571 18.8975 2.56571H18.9015ZM20.1095 23.9447C28.4893 23.5095 35.0957 18.5779 35.0957 12.5562C35.0957 10.5113 34.3331 8.59048 32.9969 6.93202L32.9807 6.89948C32.879 9.67952 28.9357 12.0294 23.4763 12.8876C23.4763 13.0707 23.4824 13.2527 23.4824 13.4378C23.4824 18.4792 22.0354 22.7215 20.0739 23.9509L20.1075 23.9437L20.1095 23.9447ZM18.9015 10.131C19.7963 10.131 20.6647 10.0924 21.4965 10.0191C21.0826 7.31232 20.0729 5.40066 18.9025 5.40066C17.7322 5.40066 16.7235 7.31232 16.3086 10.0191C17.1404 10.0924 18.0098 10.131 18.9036 10.131H18.9015ZM18.9015 20.158C20.4044 20.158 21.6297 17.0313 21.6948 13.1093H21.7029C20.7979 13.1927 19.8604 13.2364 18.9015 13.2364C17.9426 13.2364 17.0061 13.1927 16.1001 13.1093H16.1083C16.1733 17.0313 17.3996 20.158 18.9015 20.158Z" fill=""></path>
    <path fill-rule="evenodd" clip-rule="evenodd" d="M95.6934 12.999C95.6932 11.1556 96.2396 9.35343 97.2637 7.82055C98.2877 6.28767 99.7434 5.0929 101.446 4.38734C103.15 3.68178 105.024 3.49712 106.832 3.85672C108.64 4.21631 110.301 5.10401 111.604 6.40755C112.908 7.71108 113.795 9.3719 114.155 11.18C114.515 12.988 114.33 14.8621 113.624 16.5652C112.919 18.2683 111.724 19.724 110.191 20.748C108.658 21.7721 106.856 22.3186 105.013 22.3184C102.541 22.3184 100.171 21.3365 98.4229 19.5888C96.6752 17.8411 95.6934 15.4707 95.6934 12.999ZM105.013 18.8967C107.887 18.8967 110.217 16.2529 110.217 12.999C110.217 9.74516 107.887 7.10138 105.013 7.10138C102.138 7.10138 99.8105 9.74516 99.8105 12.999C99.8105 16.2529 102.139 18.8967 105.013 18.8967Z" fill=""></path>
    <path fill-rule="evenodd" clip-rule="evenodd" d="M124.907 7.56185V21.8952H120.981V7.56185H120.994H115.502V4.3222H130.384V7.56185H124.92H124.907Z" fill=""></path>
    <path fill-rule="evenodd" clip-rule="evenodd" d="M135.135 17.9409L133.629 21.8913H129.043L136.293 4.3183H141.18L148.43 21.8913H143.844L142.337 17.9409H135.135ZM138.733 14.9748H141.202L138.75 8.54224H138.715L136.263 14.9738H138.733V14.9748Z" fill=""></path>
    <path fill-rule="evenodd" clip-rule="evenodd" d="M52.5258 7.56185V21.8952H48.5988V7.56185H48.613H43.1211V4.3222H58.0036V7.56185H52.5401H52.5258Z" fill=""></path>
    <path fill-rule="evenodd" clip-rule="evenodd" d="M59.0049 12.999C59.0047 11.1556 59.5511 9.35351 60.5751 7.82066C61.5992 6.2878 63.0547 5.09303 64.7578 4.38744C66.4608 3.68185 68.3349 3.49713 70.1429 3.85664C71.9509 4.21615 73.6118 5.10375 74.9153 6.40718C76.2189 7.71062 77.1067 9.37134 77.4664 11.1793C77.8261 12.9873 77.6416 14.8614 76.9362 16.5645C76.2308 18.2677 75.0362 19.7234 73.5034 20.7475C71.9707 21.7717 70.1687 22.3184 68.3252 22.3184C67.1013 22.3185 65.8894 22.0775 64.7586 21.6093C63.6278 21.141 62.6003 20.4546 61.7348 19.5892C60.8693 18.7238 60.1828 17.6964 59.7144 16.5656C59.246 15.4349 59.0049 14.223 59.0049 12.999ZM68.3252 18.8967C71.1988 18.8967 73.5294 16.2529 73.5294 12.999C73.5294 9.74516 71.1988 7.10138 68.3252 7.10138C65.4516 7.10138 63.121 9.74516 63.121 12.999C63.121 16.2529 65.4516 18.8967 68.3252 18.8967Z" fill=""></path>
    <path fill-rule="evenodd" clip-rule="evenodd" d="M86.6706 21.8952H88.6605V15.3051V15.2227L95.512 4.3222H90.926L86.6706 11.7085L82.4141 4.3222H77.8281L84.6796 15.2227V15.3051V21.8952H86.6706Z" fill=""></path>
  </symbol>
  <symbol fill="" xmlns="http://www.w3.org/2000/svg" viewBox="0 0 116 28" id="decathlon">
    <path d="M115.886 -0.253967H0V28.254H115.886V-0.253967Z" fill=""></path>
    <path fill-rule="evenodd" clip-rule="evenodd" d="M46.2961 6.46783L40.637 16.0671C40.5211 16.2795 39.4009 17.9212 37.1218 18.0757C34.862 18.1723 32.9499 16.1057 32.9885 13.8845C33.0658 11.6827 34.7654 9.90578 37.0252 9.86715C38.9566 9.90578 40.3666 11.335 40.3473 11.3544C40.7529 11.702 41.0233 11.9531 41.3323 12.3973L43.3989 8.90144C43.032 8.53446 42.8775 8.36064 42.4139 8.03229C41.2357 7.00863 39.5168 6.19743 37.1025 6.12017C34.7848 6.08155 32.4284 7.00863 30.6322 9.26841C29.5119 10.6977 29.0677 11.9917 29.0098 13.8845C29.0291 16.1057 29.8596 17.9019 31.0764 19.196C33.1623 21.3012 35.6732 21.8034 37.0059 21.8034C38.9373 21.7262 40.3473 21.2626 41.68 20.4128C42.1049 20.1231 42.5491 19.7561 43.032 19.2732H46.6244V21.4558H50.3135V6.46783H46.2961ZM46.6631 16.1443H44.693L46.6631 12.745V16.1443Z" fill="white"></path>
    <path fill-rule="evenodd" clip-rule="evenodd" d="M53.9636 21.5529V10.0222H51.0664V6.52631H60.8008V10.0222H57.8071V21.5529H53.9636Z" fill="white"></path>
    <path fill-rule="evenodd" clip-rule="evenodd" d="M69.2409 15.7972H65.3008V21.5529H61.4766V6.52631H65.3008V12.224H69.2409V6.52631H73.1038V21.5529H69.2409V15.7972Z" fill="white"></path>
    <path fill-rule="evenodd" clip-rule="evenodd" d="M104.972 6.5262V14.87L99.2165 6.5262H95.7592V11.6059C95.3729 10.447 94.6776 9.38472 93.7119 8.47695C92.1861 7.04769 90.1967 6.2558 88.1107 6.2558C85.8896 6.2558 83.9388 6.98974 82.3937 8.45763C80.8486 9.90621 80.018 11.8183 80.018 13.885C80.018 15.5267 80.443 16.9753 81.2542 18.2307H78.3184V6.5262H74.4941V21.5527H82.7993V19.969C84.2479 21.2051 86.0441 21.8231 88.0914 21.8231C90.274 21.8231 92.3599 20.9926 93.8664 19.4861C94.7549 18.617 95.3729 17.574 95.7592 16.4344V21.5527H99.6028V13.1896L105.455 21.5527H108.835V6.5262H104.972ZM88.0721 18.0955C85.9089 18.0955 83.9388 16.2799 83.9388 13.9043C83.9388 11.7024 85.7737 9.94483 88.1107 9.94483C90.3126 9.94483 92.1474 11.7024 92.1474 13.9043C92.1668 16.3765 90.3319 18.0955 88.0721 18.0955Z" fill="white"></path>
    <path fill-rule="evenodd" clip-rule="evenodd" d="M29.0288 9.77024V6.44818H20.4918V12.6288C20.2407 10.8325 19.4875 9.38396 18.3093 8.30235C16.6676 6.81515 14.9293 6.50612 12.4377 6.50612H7.06836V21.5327H12.9592C15.1611 21.5327 16.6483 21.243 18.3286 19.6785C19.5068 18.5583 20.2407 17.1483 20.4918 15.4873V21.4554H29.0288V18.2299H24.2581V15.4487H28.3914V12.2232H24.2581V9.78956H29.0288V9.77024ZM12.4571 18.2492H10.9119V9.75093H12.4377C15.2576 9.75093 16.7835 11.2768 16.7835 13.9808C16.7835 16.9359 15.3928 18.2492 12.4571 18.2492Z" fill="white"></path>
  </symbol>
  <symbol fill="" xmlns="http://www.w3.org/2000/svg" viewBox="0 0 100 28" id="decoria">
    <path d="M64.47 22.0377L59.7798 15.7113L64.47 9.38482H61.1522L56.4383 15.7113V5.17188H53.8184V22.0347H56.4383V15.7113L61.152 22.0377H64.47Z" fill=""></path>
    <path d="M37.0928 5.17188V10.4998C36.1192 9.79712 34.9392 9.3848 33.6669 9.3848C30.3289 9.3848 27.623 12.2165 27.623 15.7098C27.623 19.2032 30.3289 22.0347 33.6669 22.0347C34.9392 22.0347 36.1192 21.6222 37.0928 20.9197V22.0347H39.7127V5.17188H37.0928ZM33.6669 19.2948C31.7746 19.2948 30.2408 17.6898 30.2408 15.7096C30.2408 13.7295 31.7746 12.1241 33.6669 12.1241C35.559 12.1241 37.0928 13.7295 37.0928 15.7096C37.0928 17.6898 35.559 19.2948 33.6669 19.2948Z" fill=""></path>
    <path d="M69.3366 9.38477C65.9988 9.38477 63.293 12.2165 63.293 15.7097C63.293 19.2031 65.9988 22.0346 69.3366 22.0346C72.6746 22.0346 75.3806 19.2029 75.3806 15.7097C75.3806 12.2163 72.6746 9.38477 69.3366 9.38477ZM69.3366 19.2948C67.4446 19.2948 65.9106 17.6898 65.9106 15.7095C65.9106 13.7295 67.4446 12.124 69.3366 12.124C71.2293 12.124 72.7626 13.7295 72.7626 15.7095C72.7626 17.6898 71.2293 19.2948 69.3366 19.2948Z" fill=""></path>
    <path d="M96.7454 9.38763V10.4998C95.7707 9.79709 94.5914 9.38477 93.3187 9.38477C89.9807 9.38477 87.2754 12.2165 87.2754 15.7097C87.2754 19.2031 89.9807 22.0346 93.3187 22.0346C94.5914 22.0346 95.7707 21.6222 96.7454 20.9197V22.0346H99.3647V9.38763H96.7454ZM93.3187 19.2948C91.4267 19.2948 89.8927 17.6898 89.8927 15.7095C89.8927 13.7295 91.4267 12.124 93.3187 12.124C95.2114 12.124 96.7454 13.7295 96.7454 15.7095C96.7454 17.6898 95.2114 19.2948 93.3187 19.2948Z" fill=""></path>
    <path d="M78.9084 15.6201H76.2891V22.0347H78.9084V15.6201Z" fill=""></path>
    <path d="M76.293 15.7111H78.9103C78.911 13.732 80.4443 12.128 82.335 12.1272V9.3877C78.9983 9.38825 76.2936 12.2191 76.293 15.7111Z" fill=""></path>
    <path d="M86.1649 9.3877H83.5449V22.0346H86.1649V9.3877Z" fill=""></path>
    <path d="M84.8609 7.92652C85.5876 7.92652 86.1769 7.30984 86.1769 6.54931C86.1769 5.78855 85.5876 5.17188 84.8609 5.17188C84.1343 5.17188 83.5449 5.78855 83.5449 6.54931C83.5449 7.30963 84.1343 7.92652 84.8609 7.92652Z" fill=""></path>
    <path d="M49.1868 18.241C48.5674 18.892 47.7119 19.2952 46.7646 19.2952C45.2614 19.2952 43.9873 18.2806 43.526 16.8714H47.3012V16.8705H52.7051C52.7719 16.4939 52.8084 16.1065 52.8084 15.7099C52.8084 12.2167 50.1026 9.38477 46.7646 9.38477C43.948 9.38477 41.5815 11.401 40.911 14.1295H40.91V14.1331C40.7865 14.6373 40.7207 15.1651 40.7207 15.7097C40.7207 19.2031 43.4266 22.0346 46.7646 22.0346C49.2421 22.0346 51.3705 20.4739 52.3035 18.2409H49.1868V18.241ZM46.7646 12.1246C48.114 12.1246 49.2779 12.9432 49.8364 14.1296H43.6927C44.2512 12.9432 45.4152 12.1246 46.7646 12.1246Z" fill=""></path>
    <path d="M0.472656 -0.203125V2.53863V26.0695V28.7797V28.8111H8.12753V26.0695H3.09255V2.53863H21.0288V26.0695H13.3705V22.7724H10.7507V26.0695H10.7474V28.8111H10.7507H13.3705H21.0288H23.6487V26.0695V2.53863V-0.171548V-0.203125" fill=""></path>
    <path d="M16.6412 8.27462C16.1888 8.36839 15.3634 8.64076 15.3634 8.64076C15.3634 8.64076 15.2142 8.19899 14.7332 7.68383C13.7622 6.64409 12.0686 5.62793 12.0686 5.62793C12.0686 5.62793 10.3751 6.64409 9.40411 7.68383C8.92311 8.19899 8.77385 8.64076 8.77385 8.64076C8.77385 8.64076 7.94852 8.36839 7.49598 8.27462C6.41212 8.05004 5.53906 8.05004 5.53906 8.05004L5.54286 14.5901C5.54286 17.6795 7.98171 21.13 12.0686 21.13C16.1556 21.13 18.5944 17.6795 18.5944 14.5901L18.598 8.05004C18.598 8.05004 17.725 8.05004 16.6412 8.27462ZM11.4402 9.07806C11.7034 8.81811 12.0686 8.56988 12.0686 8.56988C12.0686 8.56988 12.4339 8.81811 12.6971 9.07806C12.9605 9.33802 13.1469 9.63439 13.1469 9.63439C13.1469 9.63439 12.741 9.84843 12.524 10.0153C12.3882 10.12 12.2527 10.2439 12.118 10.3815L12.1182 10.38C12.1182 10.38 11.8396 10.1681 11.6132 10.0153C11.3869 9.86281 10.9904 9.63439 10.9904 9.63439C10.9904 9.63439 11.1768 9.33802 11.4402 9.07806ZM7.98171 10.9921C7.98171 10.9921 9.23725 11.4744 10.0702 11.961C10.2696 12.0774 10.4878 12.2134 10.7048 12.3531C9.52825 14.3956 8.65625 16.8345 8.64925 16.8543C7.98338 15.7739 7.98171 14.584 7.98171 14.584V10.9921ZM16.1556 14.584C16.1556 14.584 16.1556 18.5741 12.0686 18.5741C10.214 18.5741 9.20271 17.7521 8.64938 16.8543C8.66238 16.8297 9.91445 14.4802 14.067 11.9609C14.8923 11.4601 16.1556 10.992 16.1556 10.992V14.584Z" fill=""></path>
  </symbol>
  <symbol fill="" xmlns="http://www.w3.org/2000/svg" viewBox="0 0 142 28" id="dominos">
    <path d="M141.122 17.5175C140.913 16.4619 139.964 15.7009 138.951 15.777C137.818 15.8628 136.964 16.7031 136.909 17.8074C136.866 18.3498 137.03 18.8885 137.368 19.3146C137.707 19.7408 138.194 20.0226 138.732 20.1033C139.744 20.2733 140.751 19.6176 141.074 18.5927C141.109 18.4793 141.074 18.3417 141.184 18.251V17.6859C141.122 17.6455 141.134 17.5775 141.122 17.5175ZM139.033 19.7844C138.548 19.7844 138.083 19.5916 137.74 19.2485C137.397 18.9053 137.204 18.44 137.204 17.9547C137.204 17.4695 137.397 17.0041 137.74 16.661C138.083 16.3178 138.548 16.1251 139.033 16.1251C139.519 16.1251 139.984 16.3178 140.327 16.661C140.67 17.0041 140.863 17.4695 140.863 17.9547C140.863 18.44 140.67 18.9053 140.327 19.2485C139.984 19.5916 139.519 19.7844 139.033 19.7844Z" fill=""></path>
    <path d="M46.4605 13.0328C44.8413 11.9091 43.0166 11.4509 41.0768 11.425C38.7032 11.3942 36.3263 11.425 33.9526 11.425C33.394 11.425 33.292 11.5254 33.292 12.0726V19.8445C33.292 22.4449 33.292 25.0452 33.292 27.6456C33.292 28.1491 33.4199 28.2738 33.9202 28.2738C36.2226 28.2738 38.5245 28.2738 40.8259 28.2738C41.7154 28.2772 42.602 28.1734 43.4667 27.9645C46.1237 27.3056 48.1088 25.8273 49.1531 23.2399C49.7733 21.7049 49.8882 20.0971 49.6745 18.4715C49.3766 16.2079 48.3581 14.354 46.4605 13.0328ZM43.4716 22.7477C42.7251 23.4876 41.7957 23.7855 40.7708 23.8163C40.0293 23.839 39.2861 23.8163 38.5429 23.8163C38.3664 23.8163 38.3113 23.7677 38.3113 23.588C38.3178 21.0816 38.3178 18.5751 38.3113 16.0687C38.3113 15.9068 38.3583 15.855 38.5234 15.8582C38.9525 15.8695 39.3816 15.8582 39.8107 15.8582C40.5425 15.8582 41.276 15.8242 41.9933 16.0201C43.5493 16.4265 44.5143 17.6198 44.6487 19.3118C44.7539 20.6266 44.4301 21.7956 43.4716 22.746V22.7477Z" fill=""></path>
    <path d="M83.0194 15.9142C81.1687 15.4706 79.5237 15.9142 78.1231 17.2096C77.9142 17.4039 77.7345 17.6273 77.5321 17.8475C77.1063 16.7611 76.3404 16.0907 75.2167 15.8738C73.3013 15.5062 71.6239 16.0033 70.1763 17.331C70.1634 17.3116 70.1537 17.3051 70.1537 17.297C70.1537 17.0671 70.1537 16.8371 70.1537 16.6072C70.1537 16.2024 70.0079 16.0551 69.6096 16.0535C68.4806 16.0535 67.3509 16.0535 66.2208 16.0535C65.8192 16.0535 65.6719 16.1944 65.6719 16.6024C65.6719 20.3102 65.6719 24.0175 65.6719 27.7243C65.6719 28.1274 65.8208 28.2651 66.2289 28.2651H69.5238C70.0306 28.2651 70.1537 28.1436 70.1537 27.6417C70.1537 25.4289 70.1537 23.216 70.1537 21.0032C70.1537 20.8818 70.1261 20.7587 70.2249 20.6486C70.5714 20.2568 70.9681 19.9297 71.4943 19.839C72.5419 19.648 73.3256 20.0301 73.3094 21.2963C73.2835 23.4271 73.3094 25.5579 73.3094 27.6887C73.3094 28.1533 73.4373 28.278 73.9068 28.278H77.171C77.6649 28.278 77.7782 28.1647 77.7782 27.6725V21.034C77.7677 20.9623 77.7721 20.8892 77.791 20.8193C77.8099 20.7494 77.8431 20.6841 77.8883 20.6276C78.1568 20.319 78.4948 20.0787 78.8744 19.9265C80.1017 19.4715 80.9679 20.0625 80.9793 21.3594V27.7502C80.9793 28.1291 81.1137 28.2796 81.465 28.2813C82.6265 28.2813 83.7879 28.2813 84.9494 28.2813C85.2732 28.2813 85.4352 28.1194 85.4352 27.7955C85.4352 24.8924 85.4513 21.9893 85.4352 19.0862C85.3979 17.4541 84.5058 16.2721 83.0194 15.9142Z" fill=""></path>
    <path d="M26.3622 5.32882L20.8296 -0.307421C20.7351 -0.410499 20.6191 -0.491609 20.4899 -0.54504C20.3606 -0.598471 20.2212 -0.622924 20.0815 -0.616678C19.6589 -0.647442 19.3999 -0.352756 19.1279 -0.0742636L14.9181 4.22295C13.5289 5.64132 12.138 7.05861 10.7456 8.47482C10.6176 8.60273 10.5836 8.67397 10.7342 8.8197C13.8117 11.95 16.8848 15.0804 19.9536 18.2107C20.1674 18.4293 20.2483 18.3046 20.3843 18.1654C23.207 15.2833 26.0297 12.4034 28.8524 9.52564C29.3803 8.98646 29.377 8.39224 28.8411 7.85468C28.0121 7.01758 27.1896 6.16916 26.3622 5.32882ZM20.0993 11.0671C19.4642 11.0615 18.8573 10.8038 18.4122 10.3508C17.967 9.89774 17.7201 9.28643 17.7257 8.65131C17.7313 8.01619 17.9889 7.4093 18.442 6.96415C18.895 6.519 19.5063 6.27205 20.1414 6.27764C20.4559 6.2804 20.7668 6.34508 21.0563 6.46798C21.3457 6.59088 21.6082 6.76959 21.8286 6.99392C22.049 7.21824 22.2231 7.48379 22.3409 7.77538C22.4587 8.06698 22.5179 8.37893 22.5151 8.69341C22.5123 9.00789 22.4477 9.31874 22.3248 9.60822C22.2019 9.8977 22.0232 10.1601 21.7988 10.3806C21.5745 10.601 21.309 10.775 21.0174 10.8928C20.7258 11.0106 20.4138 11.0698 20.0993 11.0671Z" fill=""></path>
    <path d="M19.4001 18.7982C19.188 18.5991 18.9921 18.3789 18.7881 18.17C15.9384 15.2706 13.0898 12.3691 10.2422 9.46548C10.0593 9.27765 9.96535 9.25013 9.75648 9.45576C7.94304 11.321 6.11503 13.1798 4.29187 15.0321C3.27505 16.0683 2.25337 17.1014 1.24302 18.1457C0.75728 18.6428 0.773471 19.2257 1.25112 19.726C1.46808 19.9527 1.69476 20.168 1.91497 20.3931C4.37715 22.9092 6.84095 25.4259 9.30636 27.9431C9.40533 28.0452 9.52427 28.1258 9.65576 28.1798C9.78725 28.2339 9.92846 28.2602 10.0706 28.2573C10.216 28.2496 10.3584 28.2132 10.4896 28.1501C10.6208 28.0871 10.7381 27.9985 10.8348 27.8897C12.1679 26.5307 13.5016 25.1733 14.8357 23.8176C16.3599 22.2664 17.8851 20.7169 19.4114 19.169C19.5669 19.0119 19.541 18.9326 19.4001 18.7982ZM6.57649 21.2755C6.10436 21.2825 5.64078 21.1493 5.24447 20.8926C4.84815 20.6359 4.53695 20.2674 4.35028 19.8337C4.16361 19.4 4.10988 18.9206 4.1959 18.4563C4.28191 17.992 4.5038 17.5638 4.83344 17.2257C5.16309 16.8876 5.58567 16.655 6.04763 16.5574C6.50959 16.4597 6.99015 16.5013 7.42842 16.677C7.86669 16.8527 8.24295 17.1546 8.50953 17.5443C8.7761 17.934 8.921 18.3941 8.92586 18.8662C8.93565 19.1804 8.88205 19.4933 8.76825 19.7862C8.65445 20.0792 8.48279 20.3463 8.26352 20.5714C8.04424 20.7966 7.78185 20.9753 7.49199 21.0968C7.20214 21.2183 6.89078 21.2802 6.57649 21.2788V21.2755ZM13.4821 21.3889C12.8605 21.3753 12.2691 21.118 11.8354 20.6725C11.4017 20.227 11.1604 19.6289 11.1635 19.0071C11.1728 18.5467 11.318 18.0994 11.5808 17.7213C11.8436 17.3433 12.2124 17.0514 12.6407 16.8823C13.069 16.7133 13.5377 16.6747 13.9879 16.7713C14.4381 16.8679 14.8497 17.0955 15.1708 17.4255C15.492 17.7554 15.7085 18.1729 15.793 18.6256C15.8775 19.0782 15.8263 19.5457 15.6458 19.9693C15.4653 20.3929 15.1636 20.7537 14.7786 21.0063C14.3936 21.2588 13.9426 21.392 13.4821 21.3889Z" fill=""></path>
    <path d="M107.2 19.1544C107.14 17.4866 106.092 16.2172 104.467 15.8934C102.477 15.4967 100.67 15.8934 99.1235 17.4008C99.1235 17.0964 99.1235 16.8503 99.1235 16.6042C99.1235 16.1849 98.9988 16.0569 98.5875 16.0569C97.4671 16.0569 96.3472 16.0569 95.2278 16.0569C94.8036 16.0569 94.6562 16.1978 94.6562 16.6123C94.6562 20.3094 94.6562 24.0064 94.6562 27.7034C94.6562 28.1244 94.8003 28.2685 95.2181 28.2685H98.5454C99.0004 28.2685 99.1235 28.1471 99.1235 27.6986C99.1235 25.5581 99.1397 23.4176 99.1121 21.2771C99.0956 21.0766 99.1343 20.8754 99.2239 20.6953C99.3135 20.5152 99.4507 20.3631 99.6205 20.2554C99.7128 20.1869 99.8084 20.1231 99.9071 20.0643C101.364 19.2337 102.75 20.019 102.75 21.6835V27.6371C102.75 28.1633 102.862 28.2718 103.398 28.2718H106.664C107.091 28.2718 107.219 28.1438 107.219 27.7099C107.219 26.1232 107.219 24.5359 107.219 22.948C107.218 21.6818 107.247 20.4173 107.2 19.1544Z" fill=""></path>
    <path d="M57.7617 15.7023C54.2806 15.5404 51.2851 18.3027 51.1621 21.9117C51.0471 25.2747 53.4969 28.3009 57.0509 28.5778C60.5191 28.8465 63.5809 26.1248 63.7979 22.561C64.0197 18.9034 61.2898 15.8659 57.7617 15.7023ZM59.6286 22.1206C59.5622 23.3722 58.5859 24.2886 57.378 24.2255C56.9457 24.2121 56.5272 24.0707 56.1754 23.8191C55.8236 23.5676 55.5544 23.2174 55.4019 22.8127C55.2494 22.408 55.2204 21.9672 55.3187 21.5461C55.4169 21.125 55.638 20.7425 55.9538 20.4471C56.2696 20.1517 56.6661 19.9567 57.0928 19.8868C57.5196 19.8169 57.9575 19.8753 58.351 20.0545C58.7446 20.2338 59.0761 20.5258 59.3035 20.8936C59.531 21.2614 59.6441 21.6884 59.6286 22.1206Z" fill=""></path>
    <path d="M114.648 15.7661C111.429 16.1531 109.083 18.8781 109.083 22.2135C109.073 22.7662 109.143 23.3174 109.289 23.8505C110.098 27.0483 113.382 29.1515 116.55 28.5007C117.436 28.3243 118.275 27.9636 119.013 27.442C119.75 26.9204 120.37 26.2496 120.831 25.473C121.293 24.6965 121.586 23.8316 121.691 22.9345C121.796 22.0374 121.712 21.1281 121.443 20.2657C120.579 17.403 117.857 15.3807 114.648 15.7661ZM115.394 24.2666C114.823 24.2526 114.279 24.0162 113.88 23.6076C113.48 23.199 113.256 22.6506 113.254 22.079C113.253 21.5074 113.474 20.9578 113.872 20.5471C114.269 20.1365 114.812 19.8973 115.383 19.8803C115.954 19.8943 116.498 20.1307 116.898 20.5393C117.297 20.9479 117.522 21.4964 117.523 22.0679C117.525 22.6395 117.303 23.1891 116.905 23.5998C116.508 24.0104 115.966 24.2497 115.394 24.2666Z" fill=""></path>
    <path d="M134.507 21.1041C133.631 20.6766 132.684 20.5196 131.732 20.3803C131.102 20.288 130.461 20.2572 129.852 20.0468C129.69 19.9885 129.517 19.9075 129.505 19.6889C129.503 19.5941 129.53 19.5007 129.582 19.4214C129.634 19.3421 129.709 19.2806 129.797 19.2453C130.048 19.1197 130.325 19.0543 130.606 19.0542C131.776 18.996 132.93 19.3388 133.879 20.0257C134.193 20.2411 134.415 20.1876 134.603 19.8541C134.985 19.1838 135.362 18.5118 135.736 17.8382C135.916 17.5144 135.861 17.3201 135.551 17.1291C134.251 16.3177 132.762 15.858 131.23 15.7949C129.923 15.7334 128.639 15.8159 127.422 16.3616C126.087 16.9623 125.254 17.9386 125.216 19.4606C125.176 21.0701 125.9 22.2132 127.365 22.8884C128.286 23.3126 129.276 23.481 130.266 23.6413C130.874 23.74 131.491 23.8032 132.07 24.0218C132.308 24.114 132.546 24.2403 132.528 24.548C132.511 24.8556 132.264 24.9333 132.043 25.0127C131.613 25.1503 131.16 25.202 130.71 25.1649C129.415 25.0953 128.262 24.5933 127.159 23.9521C126.771 23.7255 126.594 23.7627 126.366 24.148C125.945 24.8562 125.526 25.5659 125.109 26.2772C124.876 26.6755 124.914 26.8617 125.305 27.1046C126.751 27.9819 128.394 28.4829 130.083 28.5618C131.379 28.5877 132.36 28.5035 133.31 28.2186C135.198 27.6519 136.261 26.4375 136.431 24.6565C136.591 23.0341 135.917 21.7938 134.507 21.1041Z" fill=""></path>
    <path d="M91.6774 16.0569C90.5904 16.0569 89.5029 16.0569 88.4148 16.0569C87.8773 16.0569 87.751 16.1816 87.751 16.7175V27.5204C87.751 28.1681 87.8449 28.2701 88.4844 28.2701H91.6871C92.1016 28.2701 92.2538 28.1211 92.2554 27.705C92.2554 24.008 92.2554 20.3125 92.2554 16.6187C92.2506 16.2075 92.0951 16.0569 91.6774 16.0569Z" fill=""></path>
    <path d="M122.837 10.1603C122.196 10.2596 121.62 10.6063 121.232 11.1258C120.844 11.6454 120.676 12.2963 120.763 12.9388C120.915 13.9329 121.658 14.6567 122.769 14.8461C123.025 14.8899 122.994 14.9757 122.918 15.1457C122.783 15.4421 122.564 15.6921 122.288 15.8646C122.249 15.8819 122.215 15.9076 122.188 15.9399C122.161 15.9722 122.141 16.0102 122.131 16.0511C122.12 16.0919 122.119 16.1347 122.127 16.1761C122.135 16.2176 122.152 16.2566 122.178 16.2904C122.605 16.951 122.523 16.9834 123.198 16.6499L123.282 16.6094C124.801 15.782 125.72 14.5612 125.808 13.0942C125.816 11.1286 124.449 9.92071 122.837 10.1603Z" fill=""></path>
    <path d="M90.1182 10.068C89.61 10.0583 89.1105 10.2002 88.6832 10.4755C88.2559 10.7507 87.9203 11.147 87.719 11.6137C87.5177 12.0804 87.46 12.5965 87.5531 13.0962C87.6462 13.5959 87.8859 14.0565 88.2417 14.4195C88.5975 14.7824 89.0534 15.0312 89.5511 15.1342C90.0488 15.2371 90.566 15.1896 91.0366 14.9976C91.5072 14.8056 91.91 14.4778 92.1937 14.0561C92.4774 13.6344 92.6291 13.1377 92.6295 12.6295C92.6331 12.2963 92.571 11.9657 92.4467 11.6565C92.3224 11.3474 92.1384 11.0658 91.9051 10.8279C91.6719 10.5899 91.394 10.4003 91.0873 10.27C90.7807 10.1396 90.4514 10.0709 90.1182 10.068Z" fill=""></path>
    <path d="M20.7419 25.3737C20.4991 25.4012 20.1671 25.1665 20.023 25.5826C19.8611 26.023 19.6911 26.4569 19.5033 26.9459C19.3495 26.5379 19.2135 26.1801 19.0775 25.8222C18.8945 25.3365 18.8945 25.3527 18.3683 25.3575C18.1772 25.3575 18.1141 25.4142 18.1173 25.6069C18.127 26.3063 18.1319 27.0058 18.1173 27.7118C18.1173 27.966 18.2371 27.9595 18.4233 27.9708C18.6484 27.9838 18.6775 27.8834 18.6743 27.6956C18.663 27.226 18.6743 26.7565 18.6743 26.2869C18.9053 26.7559 19.1122 27.2363 19.2944 27.7263C19.3333 27.8235 19.3333 27.9595 19.4968 27.966C19.6603 27.9724 19.6814 27.8251 19.7235 27.7166C19.9129 27.2309 20.0959 26.7548 20.2805 26.2723C20.3223 26.7515 20.3353 27.2327 20.3193 27.7134C20.3193 27.9303 20.3987 27.9757 20.5946 27.9692C20.7905 27.9627 20.9087 27.9692 20.9022 27.715C20.8844 27.0463 20.9022 26.3792 20.8909 25.7105C20.8844 25.5826 20.988 25.3462 20.7419 25.3737Z" fill=""></path>
    <path d="M17.5934 25.356C17.0704 25.3706 16.5474 25.3673 16.026 25.356C15.8366 25.356 15.7734 25.4078 15.7734 25.6021C15.7734 25.7964 15.8236 25.8968 16.0341 25.8709C16.1167 25.8595 16.196 25.8709 16.2851 25.8709C16.4632 25.8514 16.5247 25.9259 16.5166 26.1024C16.5037 26.3728 16.5166 26.6448 16.5166 26.912C16.5166 27.1791 16.528 27.4755 16.5166 27.7572C16.5037 28.0049 16.6785 27.9482 16.8081 27.9531C16.9376 27.958 17.0979 27.9839 17.0898 27.7458C17.0752 27.2973 17.0898 26.8488 17.0898 26.3987C17.0898 25.8935 17.0898 25.8838 17.6063 25.8725C17.7957 25.8725 17.8314 25.7915 17.8281 25.6264C17.8249 25.4612 17.8168 25.3511 17.5934 25.356Z" fill=""></path>
    <path d="M139.987 17.2649C139.901 16.912 139.589 16.7128 139.113 16.7112C138.883 16.7112 138.651 16.7112 138.421 16.7112C138.277 16.7112 138.219 16.7533 138.219 16.9071C138.219 17.6066 138.219 18.306 138.219 19.012C138.219 19.1221 138.219 19.216 138.381 19.2144C138.543 19.2128 138.596 19.1788 138.586 19.0217C138.577 18.8551 138.577 18.688 138.586 18.5214C138.594 18.421 138.517 18.2672 138.693 18.2397C138.834 18.2186 138.978 18.2073 139.072 18.3757C139.181 18.5764 139.331 18.7562 139.438 18.9586C139.564 19.2014 139.736 19.2727 140.018 19.1674L139.42 18.2429C139.908 18.0049 140.089 17.6875 139.987 17.2649ZM138.946 17.8932C138.547 17.9272 138.552 17.7183 138.581 17.511C138.581 16.98 138.526 17.035 138.999 17.0253C139.433 17.0253 139.631 17.1564 139.637 17.4495C139.644 17.7426 139.436 17.8527 138.946 17.8932Z" fill=""></path>
  </symbol>
</svg>